<?xml version="1.0" encoding="utf-8"?>
<!-- Generator: Adobe Illustrator 25.2.1, SVG Export Plug-In . SVG Version: 6.00 Build 0)  -->
<svg version="1.1" xmlns="http://www.w3.org/2000/svg" xmlns:xlink="http://www.w3.org/1999/xlink" x="0px" y="0px"
	 viewBox="0 0 900 900" style="enable-background:new 0 0 900 900;" xml:space="preserve">
<style type="text/css">
	.st0{display:none;}
	.st1{display:inline;}
	.st2{fill:#F2F2F2;}
	.st3{fill:#102A4B;}
	.st4{display:inline;fill:#102A4B;stroke:#CC66FF;stroke-width:22.6772;stroke-miterlimit:10;}
	.st5{display:inline;fill:#F2F2F2;}
	.st6{fill:#CC66FF;stroke:#BB10FC;stroke-width:14.1732;stroke-miterlimit:10;}
	.st7{fill:none;}
	.st8{fill:#BB10FC;}
	.st9{clip-path:url(#SVGID_4_);}
	.st10{fill:#E6E6E5;}
	.st11{opacity:0.4;fill:#B2B3B3;}
	.st12{fill:#CC66FF;}
	.st13{fill:#CC66FF;stroke:#BB10FC;stroke-width:3.8914;stroke-miterlimit:10;}
	.st14{fill:#FFFFFF;}
	.st15{opacity:0.4;fill:#CCCBCB;}
	.st16{clip-path:url(#SVGID_8_);fill:none;stroke:#CC66FF;stroke-width:12.4792;stroke-linecap:round;stroke-miterlimit:10;}
	.st17{fill:#707F93;}
	.st18{fill:#0C2038;}
	.st19{fill:#BB133E;}
	.st20{fill:#667A91;}
	.st21{fill:#334D6C;}
	.st22{fill:#002147;}
	.st23{fill:#C2C6C5;}
	.st24{fill:#F3F4F3;}
	.st25{fill:#FFD700;}
	.st26{fill:#E5BC0E;}
	.st27{opacity:0.4;fill:#E6E6E5;}
	.st28{fill:#D685FF;}
	.st29{display:inline;opacity:0.4;fill:#B2B3B3;}
	.st30{clip-path:url(#SVGID_10_);fill:none;stroke:#CC66FF;stroke-width:12.4792;stroke-linecap:round;stroke-miterlimit:10;}
	.st31{opacity:0.3;}
	.st32{clip-path:url(#SVGID_12_);fill:none;stroke:#CC66FF;stroke-width:45.3543;stroke-linecap:round;stroke-miterlimit:10;}
	.st33{clip-path:url(#SVGID_14_);fill:none;stroke:#CC66FF;stroke-width:45.3543;stroke-linecap:round;stroke-miterlimit:10;}
	.st34{fill:#CC66FF;stroke:#BB10FC;stroke-width:3.8998;stroke-miterlimit:10;}
	.st35{clip-path:url(#SVGID_16_);fill:none;stroke:#CC66FF;stroke-width:12.4792;stroke-linecap:round;stroke-miterlimit:10;}
	.st36{clip-path:url(#SVGID_18_);fill:none;stroke:#CC66FF;stroke-width:12.4792;stroke-linecap:round;stroke-miterlimit:10;}
	.st37{clip-path:url(#SVGID_20_);fill:#102A4B;}
	.st38{clip-path:url(#SVGID_20_);fill:#CCCBCB;}
	.st39{clip-path:url(#SVGID_22_);fill:none;stroke:#CC66FF;stroke-width:12.4792;stroke-linecap:round;stroke-miterlimit:10;}
	.st40{clip-path:url(#SVGID_22_);fill:#CCCBCB;}
	.st41{clip-path:url(#SVGID_24_);fill:#CCCBCB;}
	.st42{clip-path:url(#SVGID_24_);}
	.st43{enable-background:new    ;}
	.st44{clip-path:url(#SVGID_26_);}
	.st45{clip-path:url(#SVGID_24_);fill:#102A4B;}
	.st46{clip-path:url(#SVGID_28_);}
	.st47{clip-path:url(#SVGID_30_);fill:#CCCBCB;}
	.st48{clip-path:url(#SVGID_30_);}
	.st49{clip-path:url(#SVGID_32_);fill:#CCCBCB;}
	.st50{clip-path:url(#SVGID_34_);fill:#CCCBCB;}
	.st51{clip-path:url(#SVGID_34_);fill:#F2F2F2;stroke:#CC66FF;stroke-width:12.4792;stroke-linecap:round;stroke-miterlimit:10;}
	.st52{clip-path:url(#SVGID_36_);fill:none;stroke:#CC66FF;stroke-width:12.4792;stroke-linecap:round;stroke-miterlimit:10;}
	.st53{clip-path:url(#SVGID_38_);fill:none;stroke:#CC66FF;stroke-width:12.4792;stroke-linecap:round;stroke-miterlimit:10;}
	.st54{display:inline;opacity:0.4;fill:#CCCBCB;}
	.st55{clip-path:url(#SVGID_40_);}
	.st56{clip-path:url(#SVGID_40_);fill:#CC66FF;stroke:#BB10FC;stroke-width:3.5539;stroke-miterlimit:10;}
	.st57{clip-path:url(#SVGID_40_);fill:#FFFFFF;}
	.st58{clip-path:url(#SVGID_42_);fill:none;stroke:#CC66FF;stroke-width:10.5129;stroke-miterlimit:10;}
	.st59{display:inline;fill:#102A4B;}
	.st60{display:inline;fill:#CC66FF;}
	.st61{clip-path:url(#SVGID_44_);fill:none;stroke:#CC66FF;stroke-width:12.4792;stroke-linecap:round;stroke-miterlimit:10;}
	.st62{display:inline;fill:none;}
	.st63{font-family:'FiraSans-Bold';}
	.st64{font-size:72px;}
	.st65{opacity:0.4;}
	.st66{clip-path:url(#SVGID_52_);}
	.st67{clip-path:url(#SVGID_54_);}
	.st68{clip-path:url(#SVGID_56_);}
	.st69{fill:#999999;}
	.st70{clip-path:url(#SVGID_64_);}
	.st71{clip-path:url(#SVGID_64_);fill:#CC66FF;stroke:#BB10FC;stroke-width:6.4941;stroke-miterlimit:10;}
	.st72{clip-path:url(#SVGID_64_);fill:#BB10FC;}
	.st73{clip-path:url(#SVGID_64_);fill:#FFFFFF;}
	.st74{fill:#CCCCCC;}
	.st75{fill:#E6E6E6;}
	.st76{clip-path:url(#SVGID_66_);fill:none;stroke:#CC66FF;stroke-width:18.9249;stroke-miterlimit:10;}
	.st77{fill:#B3B3B3;}
	.st78{fill:#CC66FF;stroke:#BB10FC;stroke-width:6.8419;stroke-miterlimit:10;}
	.st79{fill:#F5E0FF;}
	.st80{fill:#527CAD;}
	.st81{fill:#001935;}
	.st82{fill:#CFD4DB;}
	.st83{fill:#CED2D7;}
	.st84{fill:#BA6ADB;}
	.st85{clip-path:url(#SVGID_68_);fill:none;stroke:#CC66FF;stroke-width:25.9829;stroke-linecap:round;stroke-miterlimit:10;}
	.st86{clip-path:url(#SVGID_70_);fill:#102A4B;}
	.st87{clip-path:url(#SVGID_70_);fill:#CCCBCB;}
	.st88{clip-path:url(#SVGID_72_);fill:none;stroke:#CC66FF;stroke-width:10.3087;stroke-linecap:round;stroke-miterlimit:10;}
	.st89{clip-path:url(#SVGID_72_);fill:#CCCBCB;}
	.st90{clip-path:url(#SVGID_74_);fill:#CCCBCB;}
	.st91{clip-path:url(#SVGID_74_);}
	.st92{clip-path:url(#SVGID_76_);}
	.st93{clip-path:url(#SVGID_74_);fill:#102A4B;}
	.st94{clip-path:url(#SVGID_78_);}
	.st95{clip-path:url(#SVGID_80_);fill:#CCCBCB;}
	.st96{clip-path:url(#SVGID_80_);}
	.st97{fill:#CC66FF;stroke:#BB10FC;stroke-width:3.3043;stroke-miterlimit:10;}
	.st98{clip-path:url(#SVGID_82_);fill:#CCCBCB;}
	.st99{clip-path:url(#SVGID_84_);fill:#CCCBCB;}
	.st100{clip-path:url(#SVGID_84_);fill:#F2F2F2;stroke:#CC66FF;stroke-width:10.3087;stroke-linecap:round;stroke-miterlimit:10;}
	.st101{fill:#264676;}
	.st102{opacity:0.8;}
	.st103{fill:url(#SVGID_85_);}
	.st104{fill:#F8AC19;}
	.st105{fill:#CCCBCB;}
	.st106{fill:#102A4C;}
	.st107{fill:#F7E062;}
	.st108{opacity:0.8;clip-path:url(#SVGID_87_);fill:#EACAB0;}
	.st109{clip-path:url(#SVGID_87_);}
	.st110{clip-path:url(#SVGID_87_);fill:none;stroke:#FFFFFF;stroke-width:6.0332;stroke-miterlimit:10;}
	.st111{clip-path:url(#SVGID_87_);fill:#102A4C;}
	.st112{opacity:0.8;fill:#EACAB0;}
	.st113{fill:#48BAC8;}
	.st114{opacity:0.8;fill:#D0D2D3;}
	.st115{clip-path:url(#SVGID_89_);}
	.st116{fill:#47B9C7;}
	.st117{opacity:0.8;clip-path:url(#SVGID_89_);}
	.st118{fill:#D0D2D3;}
	.st119{fill:#3A98A0;}
	.st120{clip-path:url(#SVGID_89_);fill:#102A4B;}
	.st121{clip-path:url(#SVGID_91_);}
	.st122{opacity:0.8;clip-path:url(#SVGID_91_);}
	.st123{clip-path:url(#SVGID_91_);fill:#FFFFFF;}
	.st124{clip-path:url(#SVGID_93_);fill:#F6DF61;}
	.st125{clip-path:url(#SVGID_93_);}
	.st126{fill:#F6DF61;}
	.st127{fill:#254676;}
	.st128{opacity:0.4;clip-path:url(#SVGID_95_);fill:#989898;}
	.st129{fill:url(#SVGID_96_);}
	.st130{opacity:0.4;fill:#808080;}
	.st131{opacity:0.6;fill:#B2B3B3;}
	.st132{fill:#CC66FF;stroke:#BB10FC;stroke-width:4.4253;stroke-miterlimit:10;}
	.st133{clip-path:url(#SVGID_98_);fill:none;stroke:#CC66FF;stroke-width:14.1914;stroke-linecap:round;stroke-miterlimit:10;}
	.st134{opacity:0.4;clip-path:url(#SVGID_100_);fill:#989898;}
	.st135{clip-path:url(#SVGID_102_);fill:none;stroke:#CC66FF;stroke-width:14.1914;stroke-linecap:round;stroke-miterlimit:10;}
	.st136{fill:#808080;}
	.st137{opacity:0.8;clip-path:url(#SVGID_104_);fill:#EACAB0;}
	.st138{clip-path:url(#SVGID_104_);}
	.st139{clip-path:url(#SVGID_104_);fill:none;stroke:#FFFFFF;stroke-width:6.0332;stroke-miterlimit:10;}
	.st140{clip-path:url(#SVGID_104_);fill:#102A4C;}
	.st141{fill:#6184C2;}
	.st142{fill:#9AC1E6;}
	.st143{opacity:0.8;clip-path:url(#SVGID_106_);fill:#EACAB0;}
	.st144{clip-path:url(#SVGID_106_);}
	.st145{clip-path:url(#SVGID_106_);fill:none;stroke:#FFFFFF;stroke-width:6.0332;stroke-miterlimit:10;}
	.st146{clip-path:url(#SVGID_106_);fill:#102A4C;}
	.st147{clip-path:url(#SVGID_108_);}
	.st148{opacity:0.8;clip-path:url(#SVGID_108_);}
	.st149{clip-path:url(#SVGID_108_);fill:#102A4B;}
	.st150{clip-path:url(#SVGID_110_);}
	.st151{opacity:0.8;clip-path:url(#SVGID_110_);}
	.st152{clip-path:url(#SVGID_110_);fill:#FFFFFF;}
	.st153{clip-path:url(#SVGID_112_);fill:#F6DF61;}
	.st154{clip-path:url(#SVGID_112_);}
	.st155{fill:none;stroke:#254676;stroke-width:48.189;stroke-miterlimit:10;}
	.st156{opacity:0.4;clip-path:url(#SVGID_114_);fill:#989898;}
	.st157{fill:url(#SVGID_115_);}
	.st158{fill:#CC66FF;stroke:#BB10FC;stroke-width:4.2733;stroke-miterlimit:10;}
	.st159{clip-path:url(#SVGID_117_);fill:none;stroke:#CC66FF;stroke-width:13.7038;stroke-linecap:round;stroke-miterlimit:10;}
	.st160{opacity:0.4;clip-path:url(#SVGID_119_);fill:#989898;}
	.st161{clip-path:url(#SVGID_121_);fill:none;stroke:#CC66FF;stroke-width:13.7038;stroke-linecap:round;stroke-miterlimit:10;}
	.st162{fill:none;stroke:#00496D;stroke-width:43.7605;stroke-miterlimit:10;}
	.st163{opacity:0.8;clip-path:url(#SVGID_123_);fill:#EACAB0;}
	.st164{clip-path:url(#SVGID_123_);}
	.st165{clip-path:url(#SVGID_123_);fill:none;stroke:#FFFFFF;stroke-width:6.0332;stroke-miterlimit:10;}
	.st166{clip-path:url(#SVGID_123_);fill:#102A4C;}
	.st167{opacity:0.8;clip-path:url(#SVGID_125_);fill:#EACAB0;}
	.st168{clip-path:url(#SVGID_125_);}
	.st169{clip-path:url(#SVGID_125_);fill:none;stroke:#FFFFFF;stroke-width:6.0332;stroke-miterlimit:10;}
	.st170{clip-path:url(#SVGID_125_);fill:#102A4C;}
	.st171{clip-path:url(#SVGID_127_);}
	.st172{opacity:0.8;clip-path:url(#SVGID_127_);}
	.st173{clip-path:url(#SVGID_127_);fill:#102A4B;}
	.st174{clip-path:url(#SVGID_129_);}
	.st175{opacity:0.8;clip-path:url(#SVGID_129_);}
	.st176{clip-path:url(#SVGID_129_);fill:#FFFFFF;}
	.st177{clip-path:url(#SVGID_131_);fill:#F6DF61;}
	.st178{clip-path:url(#SVGID_131_);}
	.st179{opacity:0.4;clip-path:url(#SVGID_133_);fill:#989898;}
	.st180{fill:url(#SVGID_134_);}
	.st181{clip-path:url(#SVGID_136_);fill:none;stroke:#CC66FF;stroke-width:13.7038;stroke-linecap:round;stroke-miterlimit:10;}
	.st182{opacity:0.4;clip-path:url(#SVGID_138_);fill:#989898;}
	.st183{clip-path:url(#SVGID_140_);fill:none;stroke:#CC66FF;stroke-width:13.7038;stroke-linecap:round;stroke-miterlimit:10;}
	.st184{opacity:0.8;clip-path:url(#SVGID_142_);fill:#EACAB0;}
	.st185{clip-path:url(#SVGID_142_);}
	.st186{clip-path:url(#SVGID_142_);fill:none;stroke:#FFFFFF;stroke-width:6.0332;stroke-miterlimit:10;}
	.st187{clip-path:url(#SVGID_142_);fill:#102A4C;}
</style>
<g id="sketches" class="st0">
</g>
<g id="Zoe" class="st0">
	<g class="st1">
		<g>
			<g>
				<path class="st2" d="M217.8,657.5c-0.4-4.4-0.9-7.2-1.5-7.9c-7-8.3-16.5-14.8-26.4-19.6c-31.2-15.2-67.2-16.8-101.7-14.2
					c-8.1,0.6-16.3,1.5-24.4,2.9c-10.2,1.8-20.3,4.4-29.8,8.4c-12,5.1-23.2,12.5-31.7,22.5c-0.8,0.9-1.5,4.1-2.2,8.9
					c-4.4,23.7-1.6,71.2-0.8,84.9c1,13.9,2.7,26.1,5.1,33.8c11.6,36.7,28.9,71.4,47.7,105c6.7,11.9,13.8,24.1,24.7,32.3
					c19.1,14.3,47.8,12.9,66.4-1.9c9.8-7.9,16.9-18.7,23.3-29.5c19.8-33.2,36-68.8,47-105.8c2.1-7.1,3.5-19.5,4.5-33.7
					C218.9,729.5,221,669.8,217.8,657.5z"/>
				<ellipse class="st2" cx="109.3" cy="524.2" rx="96.3" ry="79.9"/>
				<path class="st15" d="M161.6,584.8c-68.3,0-123.7-50.3-123.7-112.4c0-0.6,0-1.2,0-1.8c-15.4,14.2-24.7,32.9-24.7,53.5
					c0,44.1,43.1,79.9,96.3,79.9c24.2,0,46.4-7.4,63.3-19.7C169.1,584.7,165.3,584.8,161.6,584.8z"/>
				<path class="st3" d="M216.3,649.6c-5.9-6.1-11.8-11.8-14.5-12.8c-9.3-3.2-6.5,20.9-4.7,39.9c1.7,19,22,47.1,22.2,36.3
					C219.8,687.8,219.2,661.2,216.3,649.6z"/>
				<path class="st3" d="M0.8,649.6c5.9-6.1,11.8-11.8,14.5-12.8c9.3-3.2,6.5,20.9,4.7,39.9c-1.7,19-22,47.4-22.2,36.7
					C-2.7,688-2.2,661.3,0.8,649.6z"/>
				<g>
					<g>
						<path class="st3" d="M146.2,483.8c-10.8-0.1-20.7,3.3-28.8,9.1c-4.9,3.5-11.5,3.5-16.3,0c-8.1-5.9-18-9.3-28.8-9.1
							c-26.2,0.4-47.1,21.6-47.1,47.8c0,26.4,21.4,47.8,47.8,47.8c10.7,0,20.6-3.5,28.5-9.4c4.6-3.4,10.9-3.4,15.5,0
							c8,5.9,17.8,9.4,28.5,9.4c26.4,0,47.8-21.4,47.8-47.8C193.3,505.4,172.4,484.2,146.2,483.8z"/>
						<path class="st12" d="M145.5,582.5c-11,0-21.5-3.5-30.4-10.1c-3.5-2.6-8.2-2.6-11.7,0c-8.8,6.6-19.3,10.1-30.4,10.1
							c-28.1,0-50.9-22.8-50.9-50.9c0-13.5,5.2-26.2,14.6-35.8c9.4-9.6,22.1-14.9,35.6-15.1c11.1-0.1,21.7,3.2,30.6,9.7
							c3.8,2.8,8.9,2.8,12.7,0c8.9-6.5,19.5-9.9,30.6-9.7c13.5,0.2,26.1,5.6,35.6,15.1c9.4,9.6,14.6,22.3,14.6,35.8
							C196.4,559.7,173.6,582.5,145.5,582.5z M109.2,564.3c3.4,0,6.7,1.1,9.6,3.2c7.7,5.8,17,8.8,26.7,8.8c24.6,0,44.7-20,44.7-44.7
							c0-11.9-4.6-23-12.8-31.4c-8.3-8.4-19.4-13.1-31.2-13.3c-9.7-0.1-19,2.8-26.9,8.5c-6,4.4-14,4.4-20,0
							c-7.8-5.7-17.1-8.7-26.9-8.5c-11.9,0.2-22.9,4.9-31.2,13.3c-8.3,8.4-12.8,19.6-12.8,31.4c0,24.6,20,44.7,44.7,44.7
							c9.7,0,18.9-3,26.7-8.8C102.5,565.4,105.9,564.3,109.2,564.3z"/>
					</g>
					<path class="st34" d="M89.6,533c0,10-8.1,1.5-18,1.5s-18,8.4-18-1.5c0-10,8.1-18,18-18S89.6,523,89.6,533z"/>
					<path class="st34" d="M164.7,533c0,10-8.1,1.5-18,1.5s-18,8.4-18-1.5c0-10,8.1-18,18-18S164.7,523,164.7,533z"/>
					<g>
						<circle class="st7" cx="146.7" cy="533" r="29.8"/>
						<g>
							<path class="st7" d="M146.7,565.5L146.7,565.5c-0.3,0-0.6,0-0.8,0l0.1-8.2c0.2,0,0.5,0,0.7,0L146.7,565.5z"/>
							<path class="st7" d="M141.6,565.1c-0.3,0-0.6-0.1-0.8-0.1l1-5.4c0.2,0,0.5,0.1,0.7,0.1L141.6,565.1z"/>
							<path class="st7" d="M136.7,563.9c-0.3-0.1-0.5-0.2-0.8-0.3l1.8-5.1c0.2,0.1,0.4,0.2,0.7,0.2L136.7,563.9z"/>
							<path class="st7" d="M132,562c-0.3-0.1-0.5-0.3-0.8-0.4l2.6-4.8c0.2,0.1,0.4,0.2,0.6,0.3L132,562z"/>
							<path class="st7" d="M127.6,559.3c-0.2-0.2-0.5-0.3-0.7-0.5l3.3-4.3c0.2,0.1,0.4,0.3,0.6,0.4L127.6,559.3z"/>
							<path class="st7" d="M123.7,556c-0.2-0.2-0.4-0.4-0.6-0.6l4-3.8c0.2,0.2,0.3,0.3,0.5,0.5L123.7,556z"/>
							<path class="st7" d="M120.4,552.1c-0.2-0.2-0.3-0.5-0.5-0.7l4.5-3.1c0.1,0.2,0.3,0.4,0.4,0.6L120.4,552.1z"/>
							<path class="st7" d="M117.8,547.8c-0.1-0.3-0.3-0.5-0.4-0.8l4.9-2.4c0.1,0.2,0.2,0.4,0.3,0.6L117.8,547.8z"/>
							<path class="st7" d="M115.8,543.1c-0.1-0.3-0.2-0.5-0.3-0.8l5.2-1.6c0.1,0.2,0.1,0.5,0.2,0.7L115.8,543.1z"/>
							<path class="st7" d="M114.6,538.1c0-0.3-0.1-0.6-0.1-0.8l5.4-0.7c0,0.2,0.1,0.5,0.1,0.7L114.6,538.1z"/>
							<path class="st8" d="M181.9,533.8l-11-0.1c0-0.2,0-0.5,0-0.7v-0.1h11v0.1C181.9,533.3,181.9,533.6,181.9,533.8z"/>
							<path class="st7" d="M122.4,533.1l-1.7,0l-6.5,0c0,0,0,0,0-0.1c0-0.3,0-0.5,0-0.8l8.2,0.1
								C122.4,532.5,122.4,532.8,122.4,533.1L122.4,533.1z"/>
							<path class="st8" d="M173.5,529.4c0-0.2-0.1-0.5-0.1-0.7l5.4-0.9c0,0.3,0.1,0.6,0.1,0.8L173.5,529.4z"/>
							<path class="st8" d="M172.6,525.3c-0.1-0.2-0.1-0.5-0.2-0.7l5.2-1.7c0.1,0.3,0.2,0.5,0.3,0.8L172.6,525.3z"/>
							<path class="st8" d="M171.1,521.3c-0.1-0.2-0.2-0.4-0.3-0.6l4.9-2.5c0.1,0.3,0.3,0.5,0.4,0.8L171.1,521.3z"/>
							<path class="st8" d="M169,517.6c-0.1-0.2-0.3-0.4-0.4-0.6l4.4-3.2c0.2,0.2,0.3,0.5,0.5,0.7L169,517.6z"/>
							<path class="st8" d="M166.3,514.4c-0.2-0.2-0.3-0.3-0.5-0.5l3.9-3.9c0.2,0.2,0.4,0.4,0.6,0.6L166.3,514.4z"/>
							<path class="st8" d="M163.1,511.5c-0.2-0.1-0.4-0.3-0.6-0.4l3.2-4.4c0.2,0.2,0.5,0.3,0.7,0.5L163.1,511.5z"/>
							<path class="st8" d="M159.6,509.2c-0.2-0.1-0.4-0.2-0.6-0.3l2.5-4.9c0.3,0.1,0.5,0.3,0.8,0.4L159.6,509.2z"/>
							<path class="st8" d="M155.7,507.5c-0.2-0.1-0.4-0.2-0.7-0.2l1.7-5.2c0.3,0.1,0.5,0.2,0.8,0.3L155.7,507.5z"/>
							<path class="st8" d="M151.6,506.4c-0.2,0-0.5-0.1-0.7-0.1l0.8-5.4c0.3,0,0.6,0.1,0.8,0.1L151.6,506.4z"/>
							<path class="st8" d="M147.4,508.7c-0.2,0-0.4,0-0.7,0l0,0l0-11l0,0c0.3,0,0.5,0,0.8,0L147.4,508.7z"/>
						</g>
					</g>
				</g>
				<path class="st15" d="M31.3,695.4c0-22.7,4.4-44.4,12.4-64.2c0.5-2.8,1.1-5.5,1.7-8.3c-3.9,1.2-7.7,2.5-11.4,4.1
					c-12,5.1-23.2,12.5-31.7,22.5c-0.8,0.9-1.5,4.1-2.2,8.9c-4.4,23.7-1.6,71.2-0.8,84.9c1,13.9,2.7,26.1,5.1,33.8
					c11.6,36.7,28.9,71.4,47.7,105c6.7,11.9,13.8,24.1,24.7,32.3c19.1,14.3,47.8,12.9,66.4-1.9c9.8-7.9,16.9-18.7,23.3-29.5
					c3.4-5.8,6.8-11.7,10-17.6C94.3,852.5,31.3,781.3,31.3,695.4z"/>
				<path class="st12" d="M156.5,705.5c-1.4,0-2.6-1.2-2.6-2.6v0c0-1.4,1.2-2.6,2.6-2.6h20.5c3.8-4.6,6.1-10.6,6.1-17
					c0-14.9-12.1-27-27-27c-14.9,0-27,12.1-27,27c0,9.7,5.1,18.2,12.8,23l18.7-34.8h-16.7l2.8,4.6c0.3,0.5,0.4,1.2,0.3,1.8
					c-0.1,0.6-0.5,1.1-1.1,1.5c-0.4,0.2-0.8,0.4-1.3,0.4c-0.8,0-1.6-0.4-2-1.1l0,0l-4.9-8.3c-0.2-0.4-0.4-0.8-0.3-1.2l0-0.1
					c0-1.3,1.1-2.3,2.3-2.3h24.9c0.6,0,1.3,0.2,1.6,0.5l0,0c1,0.8,1.4,2.2,0.8,3.3l-20.4,38c3,1.1,6.2,1.7,9.5,1.7
					c5.6,0,10.9-1.7,15.2-4.7H156.5z"/>
				<g>
					<path class="st12" d="M87.2,834.9C71.6,801.5,63.4,762.8,63.4,723c0-17.2,1.5-34.3,4.6-50.9c2.9-16,7.3-31.6,12.9-46.2
						l-11.6-4.5c-5.9,15.4-10.5,31.7-13.6,48.5c-3.2,17.3-4.8,35.1-4.8,53.1c0,41.6,8.6,82.2,25,117.2c15,32.3,36,58.7,60.7,76.7
						c2.3-1.3,4.5-2.8,6.6-4.5c1.4-1.1,2.7-2.2,3.9-3.4C122.7,892.2,102,866.6,87.2,834.9z"/>
				</g>
				<path class="st3" d="M161.9,625.8c3.1-1.2,3-3.8-0.3-4.9c-15.2-5.2-34.4-6.1-53.1-6.1c-18.7,0-37.8,0.9-53,6.1
					c-3.3,1.1-3.4,3.7-0.3,4.9c10.8,4.2,29.1,6.7,53.4,6.7C132.8,632.5,151.1,630,161.9,625.8z"/>
				<circle class="st12" cx="156.1" cy="729.4" r="8"/>
			</g>
			<g>
				<path class="st2" d="M-26.3,705.8c30.6,0,42-27.2,42-50.2S-3.1,614-26.3,614s-42,18.6-42,41.6S-56.9,705.8-26.3,705.8z"/>
				<path class="st2" d="M-45.1,889.4c31.1-5.5,48.7,26.4,53.7,55s-10,55.1-33.6,59.3c-23.6,4.2-46.8-15.6-51.8-44.2
					S-76.2,894.9-45.1,889.4z"/>
			</g>
			<g>
				<g>
					<g>
						<path class="st3" d="M243.4,698.5c10.5,26,14.5,54.4,16.4,82.2c2,30.9,1.2,62.1-2,92.9c-0.6,5.4,5,10,10,10
							c5.9,0,9.5-4.6,10-10c3.3-31.4,4.1-63.1,1.9-94.5c-2-29-6-58.8-17-85.9c-2-5-6.7-8.6-12.3-7
							C245.6,687.5,241.3,693.5,243.4,698.5L243.4,698.5z"/>
					</g>
				</g>
				<path class="st2" d="M245,705.8c-30.6,0-42-27.2-42-50.2s18.8-41.6,42-41.6c23.2,0,42,18.6,42,41.6S275.5,705.8,245,705.8z"/>
				<path class="st12" d="M265.1,883.9c-13.9-2.5-25.1,0.9-33.7,9.8c5.2-18.2,14.1-27.7,37.8-23.6c23.3,4.1,26.6,16.7,24.6,36
					C289,893.6,280,886.5,265.1,883.9z"/>
				<path class="st2" d="M263.7,889.4c-31.1-5.5-48.7,26.4-53.7,55c-5,28.6,10,55.1,33.6,59.3c23.6,4.2,46.8-15.6,51.8-44.2
					C300.4,930.8,294.8,894.9,263.7,889.4z"/>
			</g>
		</g>
		<g class="st31">
			<path class="st15" d="M271.4,682.4c-28.3,0-51.2-22.9-51.2-51.2c0-3.4,0.3-6.7,1-9.9c-10.9,7.5-18.1,20-18.1,34.2
				c0,23,11.4,50.2,42,50.2c19.2,0,30.8-10.7,36.8-24.4C278.5,682.1,275,682.4,271.4,682.4z"/>
			<path class="st15" d="M-0.3,682.4c-28.3,0-51.2-22.9-51.2-51.2c0-3.3,0.3-6.4,0.9-9.5c-10.6,7.5-17.6,19.9-17.6,33.8
				c0,23,11.4,50.2,42,50.2c19.2,0,30.9-10.8,36.9-24.5C7.1,682,3.5,682.4-0.3,682.4z"/>
			<path class="st15" d="M274.6,982.2c-26.5,0-48-21.5-48-48c0-21,13.4-38.8,32.1-45.4c-27.9-1.3-43.8,28.6-48.6,55.5
				c-5,28.6,10,55.1,33.6,59.3c17.2,3,34.2-6.7,44.1-23.2C283.6,981.5,279.2,982.2,274.6,982.2z"/>
			<path class="st15" d="M-14.3,972.4c-26.5,0-48-21.5-48-48c0-13.5,5.6-25.7,14.5-34.4c-28.6,7.1-33.7,41.7-28.8,69.4
				c5,28.6,28.2,48.4,51.8,44.2c17.2-3,29.9-18,33.5-37C1.8,970.3-6,972.4-14.3,972.4z"/>
		</g>
		<g>
			<defs>
				<path id="SVGID_15_" d="M-26.3,705.8c30.6,0,42-27.2,42-50.2S-3.1,614-26.3,614s-42,18.6-42,41.6S-56.9,705.8-26.3,705.8z"/>
			</defs>
			<clipPath id="SVGID_2_">
				<use xlink:href="#SVGID_15_"  style="overflow:visible;"/>
			</clipPath>
		</g>
		<g>
			<defs>
				<path id="SVGID_17_" d="M245,705.8c-30.6,0-42-27.2-42-50.2s18.8-41.6,42-41.6c23.2,0,42,18.6,42,41.6S275.5,705.8,245,705.8z"
					/>
			</defs>
			<clipPath id="SVGID_4_">
				<use xlink:href="#SVGID_17_"  style="overflow:visible;"/>
			</clipPath>
			
				<path style="clip-path:url(#SVGID_4_);fill:none;stroke:#CC66FF;stroke-width:12.4792;stroke-linecap:round;stroke-miterlimit:10;" d="
				M301.9,656c-9.2,12.4-49.5,8.6-49.5,8.6"/>
		</g>
		<circle class="st14" cx="157.7" cy="522.9" r="2.6"/>
		<circle class="st14" cx="82.8" cy="524" r="2.6"/>
	</g>
	<g class="st1">
		<g>
			<g>
				<path class="st2" d="M928.1,657.5c-0.4-4.4-0.9-7.2-1.5-7.9c-7-8.3-16.5-14.8-26.4-19.6c-31.2-15.2-67.2-16.8-101.7-14.2
					c-8.1,0.6-16.3,1.5-24.4,2.9c-10.2,1.8-20.3,4.4-29.8,8.4c-12,5.1-23.2,12.5-31.7,22.5c-0.8,0.9-1.5,4.1-2.2,8.9
					c-4.4,23.7-1.6,71.2-0.8,84.9c1,13.9,2.7,26.1,5.1,33.8c11.6,36.7,28.9,71.4,47.7,105c6.7,11.9,13.8,24.1,24.7,32.3
					c19.1,14.3,47.8,12.9,66.4-1.9c9.8-7.9,16.9-18.7,23.3-29.5c19.8-33.2,36-68.8,47-105.8c2.1-7.1,3.5-19.5,4.5-33.7
					C929.2,729.5,931.3,669.8,928.1,657.5z"/>
				<ellipse class="st2" cx="819.7" cy="524.2" rx="96.3" ry="79.9"/>
				<path class="st15" d="M871.9,584.8c-68.3,0-123.7-50.3-123.7-112.4c0-0.6,0-1.2,0-1.8c-15.4,14.2-24.7,32.9-24.7,53.5
					c0,44.1,43.1,79.9,96.3,79.9c24.2,0,46.4-7.4,63.3-19.7C879.4,584.7,875.7,584.8,871.9,584.8z"/>
				<path class="st3" d="M711.2,649.6c5.9-6.1,11.8-11.8,14.5-12.8c9.3-3.2,6.5,20.9,4.7,39.9c-1.7,19-22,47.4-22.2,36.7
					C707.6,688,708.2,661.3,711.2,649.6z"/>
				<g>
					<g>
						<path class="st3" d="M856.5,483.8c-10.8-0.1-20.7,3.3-28.8,9.1c-4.9,3.5-11.5,3.5-16.3,0c-8.1-5.9-18-9.3-28.8-9.1
							c-26.2,0.4-47.1,21.6-47.1,47.8c0,26.4,21.4,47.8,47.8,47.8c10.7,0,20.6-3.5,28.5-9.4c4.6-3.4,10.9-3.4,15.5,0
							c8,5.9,17.8,9.4,28.5,9.4c26.4,0,47.8-21.4,47.8-47.8C903.7,505.4,882.7,484.2,856.5,483.8z"/>
						<path class="st12" d="M855.9,582.5c-11,0-21.5-3.5-30.4-10.1c-3.5-2.6-8.2-2.6-11.7,0c-8.8,6.6-19.3,10.1-30.4,10.1
							c-28.1,0-50.9-22.8-50.9-50.9c0-13.5,5.2-26.2,14.6-35.8c9.4-9.6,22.1-14.9,35.6-15.1c11.1-0.1,21.7,3.2,30.6,9.7
							c3.8,2.8,8.9,2.8,12.7,0c8.9-6.5,19.5-9.9,30.6-9.7c13.5,0.2,26.1,5.6,35.6,15.1c9.4,9.6,14.6,22.3,14.6,35.8
							C906.8,559.7,883.9,582.5,855.9,582.5z M819.6,564.3c3.4,0,6.7,1.1,9.6,3.2c7.7,5.8,17,8.8,26.7,8.8c24.6,0,44.7-20,44.7-44.7
							c0-11.9-4.6-23-12.8-31.4c-8.3-8.4-19.4-13.1-31.2-13.3c-9.7-0.1-19,2.8-26.9,8.5c-6,4.4-14,4.4-20,0
							c-7.8-5.7-17.1-8.7-26.9-8.5c-11.9,0.2-22.9,4.9-31.2,13.3c-8.3,8.4-12.8,19.6-12.8,31.4c0,24.6,20,44.7,44.7,44.7
							c9.7,0,18.9-3,26.7-8.8C812.9,565.4,816.2,564.3,819.6,564.3z"/>
					</g>
					<circle class="st13" cx="781.9" cy="533.4" r="18"/>
					<circle class="st13" cx="856.9" cy="533.4" r="18"/>
					<g>
						<circle class="st7" cx="857.1" cy="533" r="29.8"/>
						<g>
							<path class="st7" d="M857.1,565.5L857.1,565.5c-0.3,0-0.6,0-0.8,0l0.1-8.2c0.2,0,0.5,0,0.7,0L857.1,565.5z"/>
							<path class="st7" d="M852,565.1c-0.3,0-0.6-0.1-0.8-0.1l1-5.4c0.2,0,0.5,0.1,0.7,0.1L852,565.1z"/>
							<path class="st7" d="M847,563.9c-0.3-0.1-0.5-0.2-0.8-0.3l1.8-5.1c0.2,0.1,0.4,0.2,0.7,0.2L847,563.9z"/>
							<path class="st7" d="M842.3,562c-0.3-0.1-0.5-0.3-0.8-0.4l2.6-4.8c0.2,0.1,0.4,0.2,0.6,0.3L842.3,562z"/>
							<path class="st7" d="M838,559.3c-0.2-0.2-0.5-0.3-0.7-0.5l3.3-4.3c0.2,0.1,0.4,0.3,0.6,0.4L838,559.3z"/>
							<path class="st7" d="M834.1,556c-0.2-0.2-0.4-0.4-0.6-0.6l4-3.8c0.2,0.2,0.3,0.3,0.5,0.5L834.1,556z"/>
							<path class="st7" d="M830.8,552.1c-0.2-0.2-0.3-0.5-0.5-0.7l4.5-3.1c0.1,0.2,0.3,0.4,0.4,0.6L830.8,552.1z"/>
							<path class="st7" d="M828.1,547.8c-0.1-0.3-0.3-0.5-0.4-0.8l4.9-2.4c0.1,0.2,0.2,0.4,0.3,0.6L828.1,547.8z"/>
							<path class="st7" d="M826.2,543.1c-0.1-0.3-0.2-0.5-0.3-0.8l5.2-1.6c0.1,0.2,0.1,0.5,0.2,0.7L826.2,543.1z"/>
							<path class="st7" d="M825,538.1c0-0.3-0.1-0.6-0.1-0.8l5.4-0.7c0,0.2,0.1,0.5,0.1,0.7L825,538.1z"/>
							<path class="st8" d="M892.3,533.8l-11-0.1c0-0.2,0-0.5,0-0.7v-0.1h11v0.1C892.3,533.3,892.3,533.6,892.3,533.8z"/>
							<path class="st7" d="M832.8,533.1l-1.7,0l-6.5,0c0,0,0,0,0-0.1c0-0.3,0-0.5,0-0.8l8.2,0.1
								C832.8,532.5,832.8,532.8,832.8,533.1L832.8,533.1z"/>
							<path class="st8" d="M883.9,529.4c0-0.2-0.1-0.5-0.1-0.7l5.4-0.9c0,0.3,0.1,0.6,0.1,0.8L883.9,529.4z"/>
							<path class="st8" d="M883,525.3c-0.1-0.2-0.1-0.5-0.2-0.7l5.2-1.7c0.1,0.3,0.2,0.5,0.3,0.8L883,525.3z"/>
							<path class="st8" d="M881.5,521.3c-0.1-0.2-0.2-0.4-0.3-0.6l4.9-2.5c0.1,0.3,0.3,0.5,0.4,0.8L881.5,521.3z"/>
							<path class="st8" d="M879.3,517.6c-0.1-0.2-0.3-0.4-0.4-0.6l4.4-3.2c0.2,0.2,0.3,0.5,0.5,0.7L879.3,517.6z"/>
							<path class="st8" d="M876.6,514.4c-0.2-0.2-0.3-0.3-0.5-0.5l3.9-3.9c0.2,0.2,0.4,0.4,0.6,0.6L876.6,514.4z"/>
							<path class="st8" d="M873.5,511.5c-0.2-0.1-0.4-0.3-0.6-0.4l3.2-4.4c0.2,0.2,0.5,0.3,0.7,0.5L873.5,511.5z"/>
							<path class="st8" d="M869.9,509.2c-0.2-0.1-0.4-0.2-0.6-0.3l2.5-4.9c0.3,0.1,0.5,0.3,0.8,0.4L869.9,509.2z"/>
							<path class="st8" d="M866.1,507.5c-0.2-0.1-0.4-0.2-0.7-0.2l1.7-5.2c0.3,0.1,0.5,0.2,0.8,0.3L866.1,507.5z"/>
							<path class="st8" d="M862,506.4c-0.2,0-0.5-0.1-0.7-0.1l0.8-5.4c0.3,0,0.6,0.1,0.8,0.1L862,506.4z"/>
							<path class="st8" d="M857.7,508.7c-0.2,0-0.4,0-0.7,0l0,0l0-11l0,0c0.3,0,0.5,0,0.8,0L857.7,508.7z"/>
						</g>
					</g>
				</g>
				<path class="st15" d="M741.6,695.4c0-22.7,4.4-44.4,12.4-64.2c0.5-2.8,1.1-5.5,1.7-8.3c-3.9,1.2-7.7,2.5-11.4,4.1
					c-12,5.1-23.2,12.5-31.7,22.5c-0.8,0.9-1.5,4.1-2.2,8.9c-4.4,23.7-1.6,71.2-0.8,84.9c1,13.9,2.7,26.1,5.1,33.8
					c11.6,36.7,28.9,71.4,47.7,105c6.7,11.9,13.8,24.1,24.7,32.3c19.1,14.3,47.8,12.9,66.4-1.9c9.8-7.9,16.9-18.7,23.3-29.5
					c3.4-5.8,6.8-11.7,10-17.6C804.6,852.5,741.6,781.3,741.6,695.4z"/>
				<path class="st12" d="M866.9,705.5c-1.4,0-2.6-1.2-2.6-2.6v0c0-1.4,1.2-2.6,2.6-2.6h20.5c3.8-4.6,6.1-10.6,6.1-17
					c0-14.9-12.1-27-27-27s-27,12.1-27,27c0,9.7,5.1,18.2,12.8,23l18.7-34.8h-16.7l2.8,4.6c0.3,0.5,0.4,1.2,0.3,1.8
					c-0.1,0.6-0.5,1.1-1.1,1.5c-0.4,0.2-0.8,0.4-1.3,0.4c-0.8,0-1.6-0.4-2-1.1l0,0l-4.9-8.3c-0.2-0.4-0.4-0.8-0.3-1.2l0-0.1
					c0-1.3,1.1-2.3,2.3-2.3h24.9c0.6,0,1.3,0.2,1.6,0.5l0,0c1,0.8,1.4,2.2,0.8,3.3l-20.4,38c3,1.1,6.2,1.7,9.5,1.7
					c5.6,0,10.9-1.7,15.2-4.7H866.9z"/>
				<g>
					<path class="st12" d="M797.6,834.9c-15.6-33.4-23.8-72.1-23.8-111.9c0-17.2,1.5-34.3,4.6-50.9c2.9-16,7.3-31.6,12.9-46.2
						l-11.6-4.5c-5.9,15.4-10.5,31.7-13.6,48.5c-3.2,17.3-4.8,35.1-4.8,53.1c0,41.6,8.6,82.2,25,117.2c15,32.3,36,58.7,60.7,76.7
						c2.3-1.3,4.5-2.8,6.6-4.5c1.4-1.1,2.7-2.2,3.9-3.4C833,892.2,812.4,866.6,797.6,834.9z"/>
				</g>
				<path class="st3" d="M872.3,625.8c3.1-1.2,3-3.8-0.3-4.9c-15.2-5.2-34.4-6.1-53.1-6.1c-18.7,0-37.8,0.9-53,6.1
					c-3.3,1.1-3.4,3.7-0.3,4.9c10.8,4.2,29.1,6.7,53.4,6.7C843.1,632.5,861.4,630,872.3,625.8z"/>
				<circle class="st12" cx="866.5" cy="729.4" r="8"/>
			</g>
			<g>
				<g>
					<g>
						<path class="st3" d="M666.3,693.2c-11,27.1-15,56.9-17,85.9c-2.2,31.5-1.4,63.2,1.9,94.5c0.6,5.4,4.2,10,10,10
							c5,0,10.6-4.6,10-10c-3.2-30.8-4.1-62-2-92.9c1.8-27.8,5.8-56.2,16.4-82.2c2-5-2.2-11-7-12.3
							C672.9,684.6,668.3,688.1,666.3,693.2L666.3,693.2z"/>
					</g>
				</g>
				<path class="st2" d="M684.1,705.8c30.6,0,42-27.2,42-50.2s-18.8-41.6-42-41.6s-42,18.6-42,41.6S653.5,705.8,684.1,705.8z"/>
				<path class="st12" d="M663.9,883.9c13.9-2.5,25.1,0.9,33.7,9.8c-5.2-18.2-14.1-27.7-37.8-23.6c-23.3,4.1-26.6,16.7-24.6,36
					C640,893.6,649,886.5,663.9,883.9z"/>
				<path class="st2" d="M665.3,889.4c31.1-5.5,48.7,26.4,53.7,55c5,28.6-10,55.1-33.6,59.3c-23.6,4.2-46.8-15.6-51.8-44.2
					C628.6,930.8,634.2,894.9,665.3,889.4z"/>
			</g>
		</g>
		<g class="st31">
			<path class="st15" d="M710.1,682.4c-28.3,0-51.2-22.9-51.2-51.2c0-3.3,0.3-6.4,0.9-9.5c-10.6,7.5-17.6,19.9-17.6,33.8
				c0,23,11.4,50.2,42,50.2c19.2,0,30.9-10.8,36.9-24.5C717.5,682,713.8,682.4,710.1,682.4z"/>
			<path class="st15" d="M696,972.4c-26.5,0-48-21.5-48-48c0-13.5,5.6-25.7,14.5-34.4c-28.6,7.1-33.7,41.7-28.8,69.4
				c5,28.6,28.2,48.4,51.8,44.2c17.2-3,29.9-18,33.5-37C712.2,970.3,704.4,972.4,696,972.4z"/>
		</g>
		<g>
			<defs>
				<path id="SVGID_35_" d="M684.1,705.8c30.6,0,42-27.2,42-50.2s-18.8-41.6-42-41.6s-42,18.6-42,41.6S653.5,705.8,684.1,705.8z"/>
			</defs>
			<clipPath id="SVGID_6_">
				<use xlink:href="#SVGID_35_"  style="overflow:visible;"/>
			</clipPath>
			
				<path style="clip-path:url(#SVGID_6_);fill:none;stroke:#CC66FF;stroke-width:12.4792;stroke-linecap:round;stroke-miterlimit:10;" d="
				M627.1,656c9.2,12.4,49.5,8.6,49.5,8.6"/>
		</g>
		<circle class="st14" cx="868.1" cy="522.9" r="2.6"/>
		<circle class="st14" cx="793.1" cy="524" r="2.6"/>
	</g>
	<ellipse class="st5" cx="462.2" cy="523" rx="88.6" ry="79.9"/>
	<path class="st54" d="M510.3,583.7c-62.9,0-113.9-50.3-113.9-112.4c0-0.6,0-1.2,0-1.8c-14.1,14.2-22.8,32.9-22.8,53.5
		c0,44.1,39.7,79.9,88.6,79.9c22.3,0,42.7-7.4,58.3-19.7C517.2,583.5,513.7,583.7,510.3,583.7z"/>
	<g class="st1">
		<defs>
			<ellipse id="SVGID_39_" cx="462.2" cy="523" rx="88.6" ry="79.9"/>
		</defs>
		<clipPath id="SVGID_8_">
			<use xlink:href="#SVGID_39_"  style="overflow:visible;"/>
		</clipPath>
		<g style="clip-path:url(#SVGID_8_);">
			<path class="st3" d="M582.5,479.6c-8.5-0.2-16.4,3.5-22.8,9.7c-3.9,3.8-9.1,3.8-13,0c-6.4-6.2-14.3-9.9-22.8-9.7
				c-20.8,0.4-37.4,23-37.4,50.9c0,28.1,17,50.9,37.9,50.9c8.5,0,16.3-3.7,22.6-10c3.6-3.6,8.6-3.6,12.3,0c6.3,6.3,14.2,10,22.6,10
				c21,0,37.9-22.8,37.9-50.9C619.9,502.6,603.3,480,582.5,479.6z"/>
			<path class="st12" d="M581.9,584.7c-8.8,0-17.1-3.7-24.1-10.7c-2.8-2.8-6.5-2.8-9.3,0c-7,7-15.3,10.7-24.1,10.7
				c-22.3,0-40.4-24.3-40.4-54.2c0-14.4,4.1-27.9,11.6-38.1c7.5-10.2,17.5-15.9,28.2-16.1c8.8-0.2,17.2,3.4,24.3,10.3
				c3,2.9,7,2.9,10.1,0c7.1-6.9,15.5-10.5,24.3-10.3c10.7,0.2,20.7,5.9,28.2,16.1c7.5,10.2,11.6,23.7,11.6,38.1
				C622.3,560.4,604.2,584.7,581.9,584.7z M553.2,565.2c2.7,0,5.3,1.1,7.6,3.4c6.1,6.1,13.5,9.4,21.2,9.4
				c19.6,0,35.5-21.3,35.5-47.6c0-12.6-3.6-24.5-10.2-33.4c-6.6-8.9-15.4-14-24.8-14.1c-7.7-0.2-15.1,3-21.3,9.1
				c-4.7,4.6-11.1,4.6-15.9,0c-6.2-6.1-13.6-9.2-21.3-9.1c-9.4,0.2-18.2,5.2-24.8,14.1c-6.6,8.9-10.2,20.8-10.2,33.4
				c0,26.2,15.9,47.6,35.5,47.6c7.7,0,15-3.2,21.2-9.4C547.8,566.4,550.5,565.2,553.2,565.2z"/>
		</g>
		
			<ellipse style="clip-path:url(#SVGID_8_);fill:#CC66FF;stroke:#BB10FC;stroke-width:3.5539;stroke-miterlimit:10;" cx="529.4" cy="529" rx="12" ry="22.5"/>
		<circle style="clip-path:url(#SVGID_8_);fill:#FFFFFF;" cx="535.4" cy="516.1" r="2.5"/>
	</g>
	<path class="st5" d="M558.6,677.9c0,14.6-0.8,65.3-5.8,88.1c-15.1,68.9-52.6,157.2-94,157.2c-41.3,0-78.8-88.1-94-156.9
		c-5.1-23-5.8-73.8-5.8-88.5c0-58.8,44.7-64.5,99.8-64.5S558.6,619,558.6,677.9z"/>
	<path class="st54" d="M389,713.5c0-38,14.2-72.6,37.5-99c-39.3,3.4-67.5,16.6-67.5,63.4c0,14.7,0.8,65.5,5.8,88.5
		c15.2,68.9,52.6,156.9,94,156.9c22.6,0,44-26.3,61.3-61.4C446.2,852.8,389,789.8,389,713.5z"/>
	<g class="st1">
		<defs>
			<path id="SVGID_41_" d="M556.5,656.3c-0.1-0.7-0.2-1.3-0.3-2c-0.2-1.7-0.5-3.4-1.1-5c-5.2-13.5-25.8-22.7-38.3-27.2
				c-14.7-5.2-30.2-7.6-45.7-8.6c-20.8-1.4-42.3-0.1-62.4,5.8c-17.9,5.3-45.2,17.2-47.6,38.2c-3.2,28-2.4,56.5-0.5,84.5
				c0.9,13.9,2.4,26.1,4.6,33.8c10.4,36.7,25.9,71.4,42.8,105c6,11.9,12.4,24.1,22.2,32.3c17.1,14.3,42.8,12.9,59.5-1.9
				c8.8-7.9,15.1-18.7,20.9-29.5c17.7-33.2,32.3-68.8,42.1-105.8c1.9-7.1,3.2-19.5,4-33.7C558.2,714.1,560.2,684.3,556.5,656.3z"/>
		</defs>
		<clipPath id="SVGID_10_">
			<use xlink:href="#SVGID_41_"  style="overflow:visible;"/>
		</clipPath>
		<path style="clip-path:url(#SVGID_10_);fill:none;stroke:#CC66FF;stroke-width:10.5129;stroke-miterlimit:10;" d="M358.2,849.5
			c0-92.9-14.7-228.6,99.7-228.6S557.4,739.8,561,849.5"/>
	</g>
	<path class="st59" d="M506.8,622.8c2.8-1.1,2.7-2.8-0.3-3.8c-13.7-4.6-31-5.9-47.8-5.9c-16.8,0-34.1,1.1-47.8,5.7
		c-2.9,1-3.1,2.9-0.3,4c9.8,3.7,26.2,5.9,48.1,5.9C480.6,628.7,497.1,626.5,506.8,622.8z"/>
	<g class="st1">
		<g>
			<path class="st3" d="M445.4,698c-9.5,27.9-11.9,58.3-12.2,87.6c-0.3,32.2,2.5,64.4,7.7,96.1c0.9,5.4,7.5,8.3,12.3,7
				c5.7-1.6,7.9-7,7-12.3c-4.9-30-7.3-60.4-7-90.8c0.3-27.6,2.5-55.9,11.5-82.2C469,691.1,449.6,685.8,445.4,698L445.4,698z"/>
		</g>
	</g>
	<path class="st60" d="M453.8,889.1c13.8-3.2,25.1-0.5,34.2,7.9c-6.2-17.9-15.7-26.9-39.1-21.4c-23,5.4-25.6,18.2-22.5,37.3
		C430.5,900.2,439.1,892.6,453.8,889.1z"/>
	<path class="st5" d="M455.5,894.5c30.7-7.3,50.1,23.6,56.8,51.8c6.7,28.2-6.8,55.6-30.1,61.1c-23.3,5.5-47.6-12.9-54.3-41.2
		S424.8,901.8,455.5,894.5z"/>
	<path class="st54" d="M491,975.7c-26.5,1.5-49.2-18.7-50.7-45.2c-0.8-13.5,4.1-26,12.5-35.2c-28.1,8.8-31.2,43.6-24.8,70.9
		c6.7,28.2,31,46.7,54.3,41.2c17-4,28.8-19.7,31.3-38.8C507,972.6,499.3,975.2,491,975.7z"/>
	<ellipse class="st59" cx="460.4" cy="674.6" rx="34.2" ry="43.3"/>
	<path class="st5" d="M460.4,704.6c30.6,0,42-27.2,42-50.2c0-23-18.8-41.6-42-41.6s-42,18.6-42,41.6
		C418.4,677.4,429.8,704.6,460.4,704.6z"/>
	<path class="st54" d="M486.4,681.3c-28.3,0-51.2-22.9-51.2-51.2c0-3.3,0.3-6.4,0.9-9.5c-10.6,7.5-17.6,19.9-17.6,33.8
		c0,23,11.4,50.2,42,50.2c19.2,0,30.9-10.8,36.9-24.5C493.8,680.9,490.1,681.3,486.4,681.3z"/>
	<g class="st1">
		<defs>
			<path id="SVGID_43_" d="M460.4,704.6c30.6,0,42-27.2,42-50.2c0-23-18.8-41.6-42-41.6s-42,18.6-42,41.6
				C418.4,677.4,429.8,704.6,460.4,704.6z"/>
		</defs>
		<clipPath id="SVGID_12_">
			<use xlink:href="#SVGID_43_"  style="overflow:visible;"/>
		</clipPath>
		
			<path style="clip-path:url(#SVGID_12_);fill:none;stroke:#CC66FF;stroke-width:12.4792;stroke-linecap:round;stroke-miterlimit:10;" d="
			M432.8,658.1c23.9,9,52.2,1,52.2,1"/>
	</g>
	<rect x="283" y="348.1" class="st62" width="334" height="69.9"/>
	<text transform="matrix(1 0 0 1 386.6058 402.7603)" class="st59 st63 st64">ZOE</text>
</g>
<g id="Keyboard_not_found">
	<g>
		<circle class="st101" cx="446.9" cy="450" r="417.3"/>
		<g class="st102">
			<radialGradient id="SVGID_14_" cx="463.9958" cy="451.0816" r="417.8536" gradientUnits="userSpaceOnUse">
				<stop  offset="0.5427" style="stop-color:#FFFFFF"/>
				<stop  offset="1" style="stop-color:#FFFFFF;stop-opacity:0"/>
			</radialGradient>
			<path style="fill:url(#SVGID_14_);" d="M478.5,29.6L518.3,213L633.8,65c14.4,6.9,11.8,5.7,26.2,12.6l-43.7,182.5l168.2-83.2
				c10,12.5,8.2,10.2,18.1,22.7L684,345.1l187.7-2c3.6,15.6,2.9,12.8,6.5,28.3l-169.9,79.6l169.9,79.6c-3.6,15.6-2.9,12.8-6.5,28.3
				L684,557l118.6,145.5c-10,12.5-8.2,10.2-18.1,22.7L616.3,642L660,824.5c-14.4,6.9-11.8,5.7-26.2,12.6l-115.4-148l-39.8,183.4
				c-16,0-13.1,0-29.1,0l-39.8-183.4l-115.4,148c-14.4-6.9-11.8-5.7-26.2-12.6L311.7,642l-168.2,83.2c-10-12.5-8.2-10.2-18.1-22.7
				L244,557l-187.7,2c-3.6-15.6-2.9-12.8-6.5-28.3l169.9-79.6L49.8,371.5c3.6-15.6,2.9-12.8,6.5-28.3l187.7,2L125.4,199.6
				c10-12.5,8.2-10.2,18.1-22.7l168.2,83.2L268,77.6c14.4-6.9,11.8-5.7,26.2-12.6l115.4,148l39.8-183.4
				C465.4,29.6,462.5,29.6,478.5,29.6z"/>
		</g>
		<g>
			<g>
				<g>
					<g>
						<path class="st3" d="M200.1,366.6c-17.2-7.7-34.6-5.4-52.6-3c-9.8,1.4-19.8,2.6-29.7,2.1c-0.5,0-1.1-0.1-1.6-0.1
							c-1.9-0.1,0.8,0.2-0.9-0.1c-1.7-0.3-3.3-0.7-5-1.1c-16.9-4.4-34.8-15.6-41.6-32.9c-5.7-14.6-2.3-30.7,3.9-44.5
							c3.4-7.5-7.8-14.1-11.2-6.5c-6.6,14.8-10.6,30.8-7.3,47c2.4,11.6,8.9,22.3,17.6,30.3c15.8,14.6,36.3,21.9,57.7,20.7
							c20.7-1.2,44.3-9.6,64.2-0.7C201.1,381.1,207.7,370,200.1,366.6L200.1,366.6z"/>
					</g>
				</g>
				<g>
					<path class="st104" d="M195.3,371.4c1.2,13.4-2.4,25.2-10.6,26.7c-8.2,1.5-16.1-8.3-19.2-21.4c-3.2-13.6-1.9-25.4,11.1-27.9
						C190.1,346.3,194.1,358,195.3,371.4z"/>
				</g>
				<g>
					<g>
						<g>
							<path class="st14" d="M142.8,224.7c9.5-6.5,40.9-15.6,84.2-17.6c19.8-1,40.5-0.3,59.9,1.8c41.1,4.4,76,15.2,86.8,25.9
								c9.6,9.3,8.9,37.7,4.4,64.1c-4.6,26.5-14.6,41.5-22.6,45.1c-14.3,7.2-63.8,9.4-113.4-0.2c-49.2-9.9-86.1-18.1-98-23.1
								c-10.2-5.4-11.4-27.9-10.5-47.1C134.8,254.7,137,233.4,142.8,224.7z"/>
							<g>
								<path class="st2" d="M373.7,234.8c-4.8-4.8-20.1-11.3-33-15.6c3.7,17.5,3,37.4-0.7,56.1c-10.9,52.8-20.3,55.4-69,61
									c-35.2,4.1-51.1,0.5-65.3,0c78.8,19.1,135.9,14.8,149.9,7.7c8-3.6,18-18.6,22.6-45.1C382.6,272.5,383.3,244.1,373.7,234.8z"
									/>
							</g>
							<g class="st102">
								<path class="st105" d="M153.1,234.4c0-5.1,0.3-10.1,0.9-15c-5.1,1.8-8.9,3.6-11.3,5.3c-5.8,8.7-8,30.1-9.1,49
									c-0.9,19.2,0.3,41.7,10.5,47.1c8.9,3.8,31.7,9.3,63.1,15.9C174.6,314.4,153.1,276.9,153.1,234.4z"/>
							</g>
						</g>
						<g>
							<path class="st104" d="M158.7,264c-0.1,9.1,3.8,15.7,9.5,17.9c8,2.8,42.3,6.9,75.1,10.6c27.2,2.9,52.7,4.8,60.9,1.8
								c7.3-2.6,13.1-18.4,14.7-32.1c1.6-13.5-1-23.7-6.9-27.7c-10-7-43.7-12.3-72.8-13c-14.1-0.8-60.7,0.1-74.1,9.6
								C159.6,235,159,247.2,158.7,264z M168,237c8-5.3,35.8-8.7,64.8-8.2c32.9,0.4,67.1,6.2,76.1,12.5c3.4,2.4,4.9,10.1,3.8,20
								c-1.5,13-6.6,24.4-10,25.6c-8.4,3.2-37.8,0.6-67.3-2.4c-29.4-3.1-58.8-6.7-65.6-9c-3.5-1.3-4.7-6.6-5.2-9.6
								C162.7,254.2,166,239.1,168,237z"/>
						</g>
						<g>
							<path class="st104" d="M339.3,256.3c-1.5,17.8-8,52.7-18.8,58.9c-5.7,3.5-23.3,7.7-77.4,0.7c-0.8-0.1-1.7-0.2-2.5-0.3
								c-36.8-5.1-81.1-12.6-91.1-17.9c-5.8-3.3-8.3-11.2-8.4-24.8c-0.1-15,2.5-36.5,5.5-50.4c2.6-1.3,5.8-2.6,9.7-3.9
								c-1.3,3.3-4.6,9.1-5.9,18.4c-1.7,12.4-2.8,25.4-2.7,35c0.1,14.8,5.8,17.4,7,18c8,4.1,47.6,10.4,88,15.3
								c38.3,4.5,65.9,4.8,74.2-0.3c3.7-2.2,11.2-22.5,13.7-49.9c1.8-20.7-0.1-33.4-2.8-39.4c3.1,0.7,6,1.5,8.9,2.3
								c0.5,0.2,0.9,0.4,1.4,0.6C340.8,231.2,340.1,247,339.3,256.3z"/>
						</g>
						<g>
							<path class="st106" d="M232.8,228.8c32.9,0.4,67.1,6.2,76.1,12.5c3.4,2.4,4.9,10.1,3.8,20c-1.5,13-6.6,24.4-10,25.6
								c-8.4,3.2-37.8,0.6-67.3-2.4c-29.4-3.1-58.8-6.7-65.6-9c-3.5-1.3-4.7-6.6-5.2-9.6c-1.9-11.8,1.4-26.9,3.4-29
								C176,231.8,203.8,228.3,232.8,228.8z"/>
						</g>
						<g>
							<path class="st107" d="M193.3,244.9c-6.7-0.7-12.8,5.3-13.8,13.3c-0.2,1.4-0.3,3.3,0.8,4.5c1.2,1.3,19,2.3,20.1,2.4
								c0.6,0.1,1.2-0.1,1.8-0.4c1.3-0.9,1.7-2.8,1.9-4.2C204.9,252.6,200,245.6,193.3,244.9z"/>
						</g>
						<g>
							<path class="st107" d="M235.9,270c1.6,1.6,24.6,3,26,3.1c0.8,0.1,1.6-0.1,2.3-0.5c1.7-1.1,2.1-3.5,2.3-5.2
								c1-9.9-5.4-18.7-14.1-19.6c-8.7-0.9-16.5,6.5-17.6,16.6C234.6,266.1,234.5,268.6,235.9,270z"/>
						</g>
						<circle class="st14" cx="197.4" cy="253.4" r="2.5"/>
						<circle class="st14" cx="260.7" cy="258.2" r="2.5"/>
					</g>
					<g>
						<g>
							<path class="st10" d="M199.1,364c4.9-11.4,22-14.9,39.2-13.4c17.7,1.5,34.1,8.9,36.3,21.4c0.6,3.2,0.2,6.8-1.3,10.8
								c-0.4,1.1-0.9,2.2-1.3,3.3c-4,10.9-7,24.5-2.4,35.1c7,16.2,17.3,28.8,19.8,47.2c7.3,53.9-45.9,62.4-88.2,51.6
								c-31.3-8-43.8-36.6-31.5-67.2c3.1-7.7,7.3-14.4,11.6-20.8c10.4-15.5,21.3-31.9,17.5-53.6c-0.1-0.7-0.3-1.4-0.4-2.1
								C197.2,371.5,197.6,367.4,199.1,364z"/>
						</g>
						<g>
							<path class="st105" d="M273.8,430c-1.3,0.1-2.5,0.1-3.8,0.1c-32.1,0-58.2-26-58.2-58.2c0-6.9,1.2-13.6,3.4-19.8
								c-7.6,2.1-13.6,5.9-16.2,11.9c-1.4,3.4-1.8,7.4-0.7,12.3c0.2,0.7,0.3,1.4,0.4,2.1c3.9,21.7-7.1,38.1-17.5,53.6
								c-4.3,6.4-8.5,13.1-11.6,20.8c-12.4,30.7,0.1,59.3,31.5,67.2c42.3,10.7,95.5,2.2,88.2-51.6
								C287.3,453.4,280.1,442.3,273.8,430z"/>
						</g>
						<g>
							<path class="st106" d="M258,503c-15.8-14.1-17.7-13.8-53.9-16.6c-21.9-1.7-20.5,1.3-32.9,12.5c0,0,2,4.5,5.7,7.9
								c0.1,0.1,0.3,0.3,0.4,0.4c16.3,17.1,47.4,20.3,75,14.9c5.7-1.1,11.5-3.3,16-5.7C273.2,513.8,260.9,505.7,258,503z"/>
						</g>
						<g>
							<path class="st106" d="M250.1,360.8c-3.7,0.3-7.7,0.3-11.9-0.1c-11.2-1-20.6-4.1-25.1-8c7.3-2.4,16.4-3,25.5-2.2
								c2.4,0.2,4.8,0.5,7.1,0.9c0.2,0,0.4,0.1,0.6,0.1c4.7,0.9,9.1,2.2,13,3.9c1.5,0.6,2.9,1.3,4.2,2.1c0,0-0.1,0-0.1,0
								c-3.1,1.6-7.5,2.7-12.8,3.1C250.5,360.8,250.3,360.8,250.1,360.8z"/>
						</g>
					</g>
					
						<ellipse transform="matrix(8.924345e-02 -0.996 0.996 8.924345e-02 -133.2965 605.0334)" class="st3" cx="264.2" cy="375.4" rx="12" ry="8.2"/>
				</g>
				<g>
					<g>
						<path class="st3" d="M264.8,380.6c10.2-0.5,21.5,10.8,27.3,18.4c1.5,2,3,4.3,4,6.7c0.8,1.8,1.1,4,1,4.9
							c-0.4,2.5-2.6,5-5.5,7.3c-8.3,6.7-19.6,10.3-29.8,13.1c-13.8,3.8-28.1,6.2-42.3,7.6c-15.4,1.5-31,2-46.4,0.5
							c-8.3-0.8-8.2,12.1,0,12.9c31.5,3,65.3-0.6,95.6-9.6c12-3.6,25.4-8.3,34.3-17.5c9.2-9.4,8.2-20.9,1.1-31.4
							c-8.1-11.8-23.7-26.6-39.2-25.9C256.5,368.1,256.4,381,264.8,380.6L264.8,380.6z"/>
					</g>
				</g>
				<g>
					<path class="st104" d="M270.8,378.4c-6.5,13.5-7.4,27.2,0.5,31.9s19.9-2.3,28.3-14.7c8.7-12.9,11.9-25.6-0.7-33.3
						C286,354.4,277.3,364.9,270.8,378.4z"/>
				</g>
				<g>
					<g>
						<defs>
							<path id="SVGID_86_" d="M55,295.3c-3.5-5.7-0.7-14.7,0.9-17.5c4.8-8.2,10.5-15.6,16.2-23.1c13.4-17.7,29.3-36.9,51.2-40.6
								c23.9-4.1,41.1,28.6,29.4,48.3c-5.7,9.6-22.1,11.4-32,14.7c-6.9,2.3-13.9,5-20,9.1c-6.3,4.2-11.7,9.8-18.3,13.7
								c-6.7,3.9-13.4,5.2-20.6,2.3C60.9,301.6,55.5,296.1,55,295.3z"/>
						</defs>
						<use xlink:href="#SVGID_86_"  style="overflow:visible;fill:#F8AD1A;"/>
						<clipPath id="SVGID_16_">
							<use xlink:href="#SVGID_86_"  style="overflow:visible;"/>
						</clipPath>
						<path style="opacity:0.8;clip-path:url(#SVGID_16_);fill:#EACAB0;" d="M85,262.7c0-14.7,5.7-28.1,14.9-38.1
							c-10.7,8.1-19.7,19.3-27.8,30c-5.7,7.6-11.4,15-16.2,23.1c-1.6,2.8-4.4,11.8-0.9,17.5c0.5,0.8,5.9,6.3,6.9,6.7
							c7.2,2.9,13.9,1.6,20.6-2.3c3.8-2.2,7.2-5,10.7-7.8C87.9,283.4,85,273.4,85,262.7z"/>
						<g style="clip-path:url(#SVGID_16_);">
							<path class="st14" d="M87.7,296.1c-1.7,1.3-3.4,2.5-5.2,3.5c-0.1,0-0.1,0.1-0.2,0.1c-6.1-4.3-11.3-9.7-15.2-16.1
								c-2.8-4.5-4.8-9.4-6-14.1c1.6-2.4,3.3-4.7,5-7C66.7,273,73.6,287.3,87.7,296.1z"/>
						</g>
						<g style="clip-path:url(#SVGID_16_);">
							<path class="st104" d="M129.7,274C129.7,274,129.7,274,129.7,274C129.7,274,129.7,274,129.7,274z"/>
						</g>
						<g style="clip-path:url(#SVGID_16_);">
							<path class="st14" d="M126.7,274.9c1-0.3,2-0.6,2.9-0.9C128.7,274.3,127.7,274.6,126.7,274.9
								C126.7,274.9,126.7,274.9,126.7,274.9z"/>
						</g>
						<g style="clip-path:url(#SVGID_16_);">
							<path class="st14" d="M132.4,273.2c-0.9,0.3-1.8,0.5-2.7,0.8C130.6,273.7,131.5,273.5,132.4,273.2z"/>
						</g>
						<path style="clip-path:url(#SVGID_16_);fill:none;stroke:#FFFFFF;stroke-width:6.0332;stroke-miterlimit:10;" d="M133.8,276.2
							c2.1-10.2,0.5-21-3.4-30.6c-5.9-14.5-17.1-26.8-30.9-34.1"/>
						
							<ellipse transform="matrix(0.9501 -0.3119 0.3119 0.9501 -67.1764 57.7087)" style="clip-path:url(#SVGID_16_);fill:#102A4C;" cx="146.8" cy="238.9" rx="7.1" ry="17.1"/>
					</g>
					<g>
						<path class="st106" d="M168.2,224c3.3-1.3,6.4-2.5,10-2.4c1.3,0,2.7,0.3,3.8,1c2.8,1.7,3.5,5.9,1.8,8.6
							c-2.4,3.8-6.3,3.2-7.2,2c-1.3-1.7-7.6-1.3-10.5-0.7c-1.5,0.3-5.5,2-7.1,1.9s-2-2.1-1.9-3.7C156.6,231.1,164.4,225.4,168.2,224
							z"/>
					</g>
					<g>
						<path class="st106" d="M154.2,237.7c3.5-2.7,10.6-5.1,14.9-4.6c1.4,0.1,2.9,0.4,4.2,0c1.2-0.4,2-1.4,2.6-2.5
							c1.3-2.4,1.2-5.6-0.5-7.6c-1.6-1.8-4.2-2.4-6.6-2c-2.4,0.4-4.5,1.7-6.4,3.1c-3.9,2.8-7.3,6.3-10.1,10.2
							C151.7,237.2,154.2,237.7,154.2,237.7z"/>
					</g>
					<g>
						<path class="st106" d="M151.2,246.7c1-4.3,4.9-10.7,8.5-13.1c1.2-0.8,2.5-1.5,3.2-2.7c0.6-1.1,0.6-2.4,0.4-3.6
							c-0.6-2.6-2.6-5.1-5.3-5.5c-2.4-0.4-4.8,0.9-6.3,2.7c-1.5,1.8-2.4,4.2-3,6.5c-1.2,4.6-1.6,9.5-1.3,14.3
							C148.9,247.9,151.2,246.7,151.2,246.7z"/>
					</g>
				</g>
				<path class="st112" d="M188.2,380.3c-11.4,0-21.1-7.7-23.9-18.3c-0.6,4.3,0,9.4,1.3,14.7c3.1,13.1,11,22.9,19.2,21.4
					c6.6-1.2,10.1-8.9,10.7-18.9C193.1,379.9,190.7,380.3,188.2,380.3z"/>
				<path class="st112" d="M279.1,373.4c0-3.6,0.8-6.9,2.1-10c-4.1,3.5-7.5,9-10.4,15.1c-6.5,13.5-7.4,27.2,0.5,31.9
					c7.5,4.5,18.7-1.6,27-12.8C287.3,395,279.1,385.1,279.1,373.4z"/>
			</g>
		</g>
		<g>
			<g>
				<g>
					<g>
						<g>
							<path class="st3" d="M58.7,561.6c-6.5,15.8-4.7,36.5,0.4,52.5c5.4,16.9,17.9,33.8,37.7,31.2c14.1-1.9,25.8-12,35.3-21.9
								c7.2-7.5-4.2-19-11.4-11.4c-6.8,7.1-15.1,14.8-24.3,17c-4.8,1.2-9.4-0.1-12.6-3.3c-4.3-4.3-7.3-10-9.3-16.4
								c-2.5-7.9-3.3-14-3.5-21.9c-0.2-8.4,0.1-13.8,3.3-21.5c1.7-4-1.8-8.9-5.6-9.9C64,554.6,60.4,557.5,58.7,561.6L58.7,561.6z"/>
						</g>
					</g>
					<path class="st113" d="M110.2,588c3.5-4.2,8-7.7,13.1-10.3c9.4-4.8,21.8-7.6,31.1-1.1c7.4,5.1,15.8,13.5,18.9,22.1
						c3.6,10.1,3.1,21.9-2.4,31.1c-5.7,9.5-15.6,16.2-26.7,17.5c-23.8,3-45.3-19.2-41.4-43C103.8,598.1,106.4,592.6,110.2,588z"/>
					<path class="st114" d="M110.2,588c3.5-4.2,8-7.7,13.1-10.3c9.4-4.8,21.8-7.6,31.1-1.1c7.4,5.1,15.8,13.5,18.9,22.1
						c3.6,10.1,3.1,21.9-2.4,31.1c-5.7,9.5-15.6,16.2-26.7,17.5c-23.8,3-45.3-19.2-41.4-43C103.8,598.1,106.4,592.6,110.2,588z"/>
				</g>
				<g>
					<defs>
						<path id="SVGID_88_" d="M332.5,578.7c10,28.6,15.3,71.9,4,100.1c-11.3,28.1-33.5,44.4-60.6,58.1c-9.5,4.8-25.2,4.8-35.8,5
							c-11,0.3-33.4-4.6-43.6-8.7c-38.3-15.3-68.2-40-81.3-79.1c-6.3-18.8,0.8-51,14-65.8c4.4-5,9.9-7.3,15.9-10.1
							c33.7-16.2,74.6,0.2,108.9-14.7c8.2-3.6,15.7-8.5,24.1-11.5c11.4-4.1,23.9-7.7,35.6-0.9C321,555.3,327.6,564.5,332.5,578.7z"
							/>
					</defs>
					<use xlink:href="#SVGID_88_"  style="overflow:visible;fill:#F1F1F2;"/>
					<clipPath id="SVGID_18_">
						<use xlink:href="#SVGID_88_"  style="overflow:visible;"/>
					</clipPath>
					<g style="clip-path:url(#SVGID_18_);">
						<path class="st116" d="M223.5,726c13.6-0.3,29.7,9.9,38.1,14.6c-7.6,1.8-16.3,2.3-23.4,2.8l-2.4,0.1
							c-3.7,0.2-8.7-0.1-14.1-0.7c-1.8-3-4.7-8.4-4.5-12.3c-14.7-11.4-31.1-29.8-36.9-59.1c-0.4,0-0.7-0.1-1.1-0.1
							c-18.7-2.1-15.4-7.6-16.1-16.7c-0.5-6.8-16.3-12.4-21.1-18.4c-10.5-13-16-36.9,7.2-59.8c17.4-7,39.1-6.1,39.1-6.1
							s-49.7,45.3-33.7,61.2c4,4,19,9.8,28,11.1c21.2,3.2,43.8-4.4,59-19.7c18.5-18.6,26.9-45.2,33.7-73.9
							c6.6-2.1,13.3-3.2,19.9-1.7c2.7,12.4-20.3,52.4-33.6,72c-6.8,10-24.8,27.9-36.6,30.6c-10.8,2.5-11.7,5.2-18.3,13.6
							c-5.8,7.4-8.8,9.1-19,8.5C193.9,699,209.8,715.7,223.5,726z"/>
					</g>
					<g style="opacity:0.8;clip-path:url(#SVGID_18_);">
						<path class="st118" d="M284,706.4c-68.4-8.9-118.1-67.3-118-134.5c-7.1,1.2-14.1,3.1-20.7,6.3c-6,2.9-11.5,5.2-15.9,10.1
							c-13.2,14.8-20.3,47-14,65.8c13.1,39.1,43,63.8,81.3,79.1c10.2,4.1,32.6,9,43.6,8.7c10.6-0.3,26.3-0.2,35.8-5
							c16.7-8.5,31.5-17.9,43.1-30.5C307.7,707.9,295.9,707.9,284,706.4z"/>
					</g>
					<g style="clip-path:url(#SVGID_18_);">
						<path class="st119" d="M223.5,726c-13.7-10.3-29.6-27-35.6-53.9c8.6,0.5,12.1-0.7,16.5-5.6c-6.9-7.1-13.1-15-18.3-23.5
							c-1.2-0.1-2.3-0.2-3.5-0.4c-9.1-1.4-24-7.2-28-11.1c-8.5-8.5,1.6-25.3,12.9-39.1c-1-6.7-1.5-13.5-1.5-20.5
							c-5.8,0.9-11.5,2.4-17,4.6c-23,22.9-17.4,46.7-7,59.7c4.8,6,20.6,11.6,21.1,18.4c0.7,9.1-2.6,14.6,16.1,16.7
							c0.4,0,0.7,0.1,1.1,0.1c5.8,29.3,22.3,47.7,36.9,59.1c-0.1,2.7,1.3,6.3,2.7,9.1c0.6,1.2,1.2,2.3,1.7,3.1
							c5.4,0.7,10.5,1,14.1,0.7l2.4-0.1c6.3-0.4,14-0.9,20.9-2.2c0.8-0.2,1.6-0.3,2.4-0.5C253.2,735.9,237.1,725.7,223.5,726z"/>
					</g>
					<path style="clip-path:url(#SVGID_18_);fill:#102A4B;" d="M146.6,620c4.4,11.1,12.4,15.6,26.1,20.1c17.5,5.7,36.4,4.3,53.4-5.3
						c30.9-17.4,41.4-50.8,49.2-85.8c-29.2,2.7-37.2,4.7-78.7,18.2C159,579.5,140,603.3,146.6,620z"/>
				</g>
				<g>
					<defs>
						<path id="SVGID_90_" d="M184.9,436.6c-26.4,1.2-53,13-68.6,34.4c-16.5,22.6-18.9,54.2-10,80.3c19,56.1,93.1,88,143,48.8
							c29.6-23.2,39.1-69,29.9-103.8C268.5,455.7,224.7,434.8,184.9,436.6z"/>
					</defs>
					<use xlink:href="#SVGID_90_"  style="overflow:visible;fill:#F2F2F2;"/>
					<clipPath id="SVGID_20_">
						<use xlink:href="#SVGID_90_"  style="overflow:visible;"/>
					</clipPath>
					<g style="clip-path:url(#SVGID_20_);">
						<path class="st116" d="M166,566.8c-1.9,19.8,3.5,46.8,11.3,58c1,0.1,2,0.2,3,0.3c-12.3-26-10.3-57.7-9.6-57.6
							c38.9,4.8,73.8-17.3,77.8-49.4c4-32.1-26.2-48.3-65.1-53.1c-38.9-4.8-72.1,3.5-76.1,35.6C103.5,531.4,129.5,560.2,166,566.8z
							 M112.6,501.3c3.6-29.2,34.2-35.5,70.2-31c36,4.5,64.1,18,60.5,47.2c-3.6,29.2-35.9,49.3-71.9,44.8
							C135.3,557.8,108.9,530.4,112.6,501.3z"/>
					</g>
					<g style="opacity:0.8;clip-path:url(#SVGID_20_);">
						<path class="st118" d="M182.8,600.6c-55.2-28.5-85.2-77.5-46.2-140.8c4.4-7.1,10-13.4,15.3-19.5c-8.6,2.4-16.9,6.1-24.4,11.3
							c-24.7,16.8-38.9,47.8-40,77.1c-2.5,63.2,58.1,121.5,121.7,99.9c10.4-3.5,19.9-9.3,28.4-16.7
							C219.3,613.2,200.4,609.6,182.8,600.6z"/>
					</g>
					<g style="clip-path:url(#SVGID_20_);">
						<path class="st3" d="M113.6,502.2c-3.7,29.5,23.1,57.1,59.7,61.6s69.2-15.7,72.9-45.2c3.7-29.5-24.7-43.8-61.3-48.4
							C148.2,465.7,117.2,472.7,113.6,502.2z"/>
					</g>
					<g style="clip-path:url(#SVGID_20_);">
						<path class="st107" d="M148.3,493.4c-7.3-0.6-13.7,5.1-14.4,12.9c-0.1,1.3-0.1,3.2,1.1,4.3c1.4,1.2,20.5,2.4,21.6,2.5
							c0.7,0.1,1.3-0.1,1.9-0.4c1.4-0.9,1.7-2.7,1.8-4.1C161,500.9,155.6,494.1,148.3,493.4z"/>
					</g>
					<g style="clip-path:url(#SVGID_20_);">
						<path class="st107" d="M190.3,520.1c4.2,0.7,26.3,5,28.5,6.1c0.8,0.4,1.7,0.1,2.6-0.4c1.9-1.1,2.6-3.6,3-5.5
							c2-10.7-4.2-20.9-13.8-22.7c-9.6-1.8-19,5.5-21,16.3C189.2,515.8,188.1,519.7,190.3,520.1z"/>
					</g>
					
						<ellipse transform="matrix(0.1329 -0.9911 0.9911 0.1329 -363.8178 585.4242)" style="clip-path:url(#SVGID_20_);fill:#FFFFFF;" cx="152.7" cy="500.6" rx="2.6" ry="2.7"/>
					
						<ellipse transform="matrix(0.1329 -0.9911 0.9911 0.1329 -316.9123 655.0268)" style="clip-path:url(#SVGID_20_);fill:#FFFFFF;" cx="215.9" cy="508.6" rx="2.6" ry="2.7"/>
				</g>
				<g>
					<g>
						<g>
							<path class="st3" d="M320.5,595.4c-4.5,19.9-10,39-21.7,56c-16.1,23.5-41.2,39.4-66,52.4c-9.2,4.8-1.1,18.8,8.2,14
								c27.1-14.2,53.3-31.9,71.1-57.3c12.7-18.1,19.1-39.4,23.9-60.7C338.3,589.6,322.8,585.2,320.5,595.4L320.5,595.4z"/>
						</g>
					</g>
					<g>
						<defs>
							<path id="SVGID_92_" d="M331.5,541.6c-5-2.2-10.6-3.3-16.4-3.3c-10.5-0.1-22.9,3-28.2,13c-4.3,7.9-8,19.2-6.9,28.2
								c1.3,10.7,7.1,20.9,16.2,26.7c9.3,5.9,21.2,7.4,31.7,3.7c22.6-8.1,31.8-37.5,17.6-57.1C341.7,547.7,336.9,544,331.5,541.6z"
								/>
						</defs>
						<use xlink:href="#SVGID_92_"  style="overflow:visible;fill:#48BAC8;"/>
						<clipPath id="SVGID_22_">
							<use xlink:href="#SVGID_92_"  style="overflow:visible;"/>
						</clipPath>
						
							<ellipse transform="matrix(0.1511 -0.9885 0.9885 0.1511 -278.8582 796.4328)" style="clip-path:url(#SVGID_22_);fill:#F6DF61;" cx="324.3" cy="560.6" rx="15.6" ry="16.3"/>
						<g style="clip-path:url(#SVGID_22_);">
							<path class="st119" d="M327.7,596.9c-21-5.6-33.4-27-27.9-48c0.9-3.6,2.4-6.9,4.1-9.9c-10.5,2.8-21.2,9.1-23.9,19.9
								c-2.2,8.9-3.1,21.1,0.4,29.7c4,10.2,12.4,18.9,22.8,22.3c10.5,3.4,24.6,1.7,32.3-4.1c3-2.3,6.1-5.6,8.7-9.2
								C338.8,598.6,333.2,598.4,327.7,596.9z"/>
						</g>
					</g>
				</g>
				<g>
					<g>
						<path class="st116" d="M234,690c2.9,2.7,3.8,8.1,4.5,12c0.8,4.4,1.6,8.9,1.2,13.3c-1.1,11.6-10.3,21.3-21.1,25.8
							c-10.8,4.5-22.8,4.8-34.5,4.2c-8.3-0.4-16.7-1.7-24.2-5.3c-4-1.9-7.6-4.6-10.2-8.1c-2.1-2.9-3.4-6.4-4.2-10
							c-2.3-10.2-1.6-21.3,3.1-30.7c0.9-1.9,2.1-3.6,3.4-5.2c3-3.6,6.6-6.3,10.7-8.3c4.5-2.2,9.8-3.8,14.8-4.5
							c1.3-0.2,2.6-0.3,3.9-0.3c2.2,0,4.3,0.2,6.5,0.4C205.8,675,224.4,680.8,234,690z"/>
						<path class="st126" d="M213.8,678.9c1.4,0.5,2.8,1,4.1,1.5c7.6,18,8.1,44-2.6,61.7c-1.5,0.5-3,0.9-4.6,1.3
							C222.1,725.8,221.1,696.3,213.8,678.9z"/>
						
							<ellipse transform="matrix(0.9957 -9.294078e-02 9.294078e-02 0.9957 -65.3911 18.5141)" class="st114" cx="166.1" cy="711.3" rx="17.9" ry="23.5"/>
					</g>
				</g>
			</g>
		</g>
		<g>
			<path class="st127" d="M450,32.7c230.5,0,417.3,186.8,417.3,417.3S680.5,867.3,450,867.3S32.7,680.5,32.7,450
				S219.5,32.7,450,32.7 M450,7.2c-59.8,0-117.8,11.7-172.4,34.8c-52.7,22.3-100.1,54.2-140.7,94.9c-40.7,40.7-72.6,88-94.9,140.7
				C18.9,332.2,7.2,390.2,7.2,450c0,59.8,11.7,117.8,34.8,172.4c22.3,52.7,54.2,100.1,94.9,140.7c40.7,40.7,88,72.6,140.7,94.9
				c54.6,23.1,112.6,34.8,172.4,34.8s117.8-11.7,172.4-34.8c52.7-22.3,100.1-54.2,140.7-94.9c40.7-40.7,72.6-88,94.9-140.7
				c23.1-54.6,34.8-112.6,34.8-172.4c0-59.8-11.7-117.8-34.8-172.4c-22.3-52.7-54.2-100.1-94.9-140.7c-40.7-40.7-88-72.6-140.7-94.9
				C567.8,18.9,509.8,7.2,450,7.2L450,7.2z"/>
		</g>
		<circle class="st14" cx="592.7" cy="363.1" r="2.7"/>
		<g>
			<path class="st107" d="M766.8,730.2C717.7,787.9,651.8,831.7,579,855.7c-2.3,0.8-4.5,1.6-6.8,2.3l-6.9,2
				c-4.6,1.3-9.2,2.7-13.8,3.9l-14,3.2c-2.3,0.5-4.7,1.1-7,1.6l-7.1,1.3l-7.1,1.3l-3.5,0.6c-1.2,0.2-2.4,0.4-3.6,0.6l-14.3,1.8
				l-3.6,0.5c-0.6,0.1-1.2,0.2-1.8,0.2l-1.8,0.1l-7.2,0.6l-7.2,0.6c-2.4,0.2-4.8,0.4-7.2,0.4l-14.4,0.4l-3.6,0.1
				c-1.2,0-2.4,0-3.6-0.1l-7.2-0.2l-7.2-0.2c-1.2,0-2.4,0-3.6-0.1l-3.6-0.3l-14.4-1c-2.4-0.1-4.8-0.5-7.2-0.7l-7.2-0.9l-7.2-0.9
				c-1.2-0.1-2.4-0.3-3.6-0.5l-3.6-0.6l-14.3-2.4c-4.7-1-9.4-2-14.1-3.1c-2.4-0.5-4.7-1-7.1-1.6l-7-1.9c-4.6-1.3-9.3-2.5-14-3.8
				c-9.2-3-18.4-5.7-27.4-9.3l-6.8-2.5l-3.4-1.3c-1.1-0.4-2.2-0.9-3.3-1.4l-13.3-5.8c-1.1-0.5-2.2-0.9-3.3-1.5l-3.3-1.6l-6.5-3.2
				c-4.3-2.2-8.7-4.2-12.9-6.6l-12.7-7c-1.1-0.6-2.1-1.2-3.1-1.8l-3.1-1.9l-6.2-3.8l-6.2-3.8c-2-1.3-4-2.7-6-4.1l-11.9-8.2
				l-11.5-8.8c-1.9-1.5-3.9-2.9-5.8-4.4l-5.5-4.7c-3.7-3.1-7.4-6.2-11.1-9.4l-10.6-9.9l-2.7-2.5c-0.9-0.8-1.8-1.6-2.6-2.5l-5.1-5.2
				l-5.1-5.2l-2.5-2.6l-1.3-1.3l-1.2-1.4c-6.3-7.3-12.9-14.4-18.8-22.2c-12.3-15-22.9-31.2-33.1-47.7l-7.2-12.6
				c-1.2-2.1-2.4-4.2-3.5-6.3l-3.3-6.5l-6.5-13l-5.8-13.3L48,609l-2.6-6.8l-5.2-13.6l-4.5-13.8l-2.2-6.9l-1.9-7l-3.8-14l-3.1-14.2
				c-0.5-2.4-1-4.7-1.5-7.1l-1.2-7.2c-0.8-4.8-1.6-9.6-2.3-14.4l-1.6-14.4l-0.4-3.6c-0.1-1.2-0.3-2.4-0.3-3.6l-0.5-7.3l-0.5-7.3
				c-0.1-2.4-0.4-4.8-0.4-7.3L16,446c-0.2-4.8,0.2-9.7,0.3-14.5l0.3-7.3l0.1-3.6L17,417l1.2-14.5c0.1-1.2,0.2-2.4,0.3-3.6l0.5-3.6
				l1-7.2c1.1-9.6,3.1-19.1,4.8-28.6c1-4.7,2.1-9.4,3.2-14.2l1.7-7.1l2-7c1.3-4.7,2.6-9.3,4-13.9l4.6-13.8l1.2-3.4
				c0.4-1.1,0.8-2.3,1.2-3.4l2.6-6.8l2.6-6.8c0.9-2.2,1.7-4.5,2.8-6.7l5.9-13.2l1.5-3.3c0.5-1.1,1.1-2.2,1.6-3.2l3.3-6.5l3.3-6.5
				c0.6-1.1,1.1-2.2,1.7-3.2l1.8-3.1l7.2-12.6c1.2-2.1,2.5-4.1,3.8-6.2l3.9-6.1l3.9-6.1c0.6-1,1.3-2,2-3l2.1-3l8.4-11.8
				c2.9-3.8,5.9-7.6,8.9-11.4l4.5-5.7l4.7-5.5c3.2-3.6,6.3-7.3,9.5-10.9l10-10.4c1.7-1.7,3.3-3.5,5-5.2l5.3-5
				c3.5-3.3,7-6.7,10.6-9.9l11-9.4l2.8-2.3c0.9-0.8,1.8-1.6,2.8-2.3l5.7-4.4l5.7-4.4l2.9-2.2c1-0.7,1.9-1.5,2.9-2.1l11.9-8.2l3-2
				c1-0.7,2-1.4,3-2l6.1-3.8c4.1-2.5,8.2-5.1,12.3-7.5l12.6-6.9c2.1-1.1,4.2-2.3,6.3-3.4l6.5-3.1l13-6.3l13.3-5.6l6.6-2.8
				c2.2-0.9,4.5-1.7,6.8-2.5l13.5-4.9c4.6-1.5,9.2-2.8,13.7-4.3l6.9-2.1c2.3-0.7,4.6-1.2,7-1.8l13.9-3.5c4.7-1,9.4-1.9,14.1-2.8
				l7-1.4l7.1-1l14.2-2.1l14.3-1.4c2.4-0.2,4.8-0.5,7.1-0.6l7.2-0.3l7.2-0.3l3.6-0.2c1.2-0.1,2.4-0.1,3.6-0.1
				c9.5,0.1,19.1-0.1,28.6,0.6l7.1,0.4l3.6,0.2c1.2,0.1,2.4,0.2,3.6,0.3l14.2,1.5l3.5,0.4l3.5,0.5l7.1,1.1c4.7,0.8,9.4,1.3,14.1,2.4
				l14,2.9l1.7,0.4l1.7,0.4l3.5,0.9l6.9,1.8l6.9,1.8c2.3,0.6,4.5,1.4,6.8,2.1l13.6,4.2c-36.6-9.7-74.2-15.4-111.9-15.6
				c-9.4-0.3-18.8,0.3-28.2,0.6c-1.2,0-2.3,0.1-3.5,0.2l-3.5,0.3l-7,0.6l-7,0.6c-2.3,0.2-4.7,0.6-7,0.9l-13.9,1.8L379.5,30l-6.9,1.3
				l-6.8,1.6c-4.6,1.1-9.1,2.1-13.7,3.2L338.6,40c-2.2,0.7-4.5,1.2-6.7,2l-6.6,2.3c-4.4,1.5-8.9,3-13.3,4.5l-13,5.2
				c-2.2,0.9-4.4,1.7-6.5,2.6l-6.4,2.9l-12.7,5.8l-12.4,6.4l-6.2,3.2l-6.1,3.5l-12.1,7c-3.9,2.5-7.8,5.1-11.7,7.6l-5.9,3.8
				c-1,0.6-1.9,1.3-2.9,2l-2.8,2l-11.3,8.2c-1,0.7-1.9,1.4-2.8,2.1l-2.7,2.2l-5.4,4.4l-5.4,4.4c-0.9,0.7-1.8,1.5-2.6,2.3l-2.6,2.3
				l-10.4,9.3c-3.4,3.2-6.7,6.5-10,9.7l-5,4.9c-1.6,1.6-3.2,3.4-4.8,5.1l-9.5,10.2l-9,10.7l-4.5,5.3l-4.2,5.6
				c-2.8,3.7-5.6,7.4-8.4,11.1l-7.9,11.5l-2,2.9c-0.7,1-1.3,1.9-1.9,2.9l-3.7,5.9l-3.7,5.9c-1.2,2-2.5,3.9-3.6,6l-6.7,12.2l-1.7,3
				c-0.6,1-1,2.1-1.6,3.1l-3.1,6.2l-3.1,6.2c-0.5,1-1,2.1-1.5,3.1l-1.4,3.2l-5.5,12.7c-1,2.1-1.7,4.3-2.6,6.5l-2.5,6.5L60,303
				c-0.4,1.1-0.8,2.2-1.1,3.3l-1.1,3.3l-4.3,13.2c-1.3,4.5-2.5,8.9-3.7,13.4l-1.8,6.7l-1.5,6.8c-1,4.5-2.1,9-3,13.6
				c-1.5,9.1-3.4,18.2-4.4,27.4l-0.9,6.9l-0.4,3.4c-0.2,1.1-0.2,2.3-0.3,3.5l-1.1,13.8l-0.3,3.5l-0.1,3.5l-0.2,6.9
				c-0.1,4.6-0.4,9.2-0.2,13.9l0.2,13.9c0,2.3,0.2,4.6,0.4,6.9l0.5,6.9l0.5,6.9c0.1,1.2,0.2,2.3,0.3,3.5l0.4,3.4l1.6,13.8
				c0.7,4.6,1.5,9.1,2.2,13.7l1.1,6.8c0.5,2.3,1,4.5,1.5,6.8l2.9,13.6l3.6,13.4l1.8,6.7l2.1,6.6l4.3,13.2l4.9,13l2.5,6.5l2.8,6.4
				l5.6,12.7l6.2,12.4l3.1,6.2c1.1,2.1,2.3,4,3.4,6.1l6.8,12.1c9.6,15.8,19.7,31.4,31.4,45.8c5.5,7.4,11.8,14.2,17.8,21.3l1.1,1.3
				l1.2,1.3l2.4,2.5l4.8,5l4.8,5c0.8,0.9,1.6,1.7,2.5,2.4l2.5,2.4l10.1,9.6c3.4,3.1,7,6.1,10.5,9.1l5.3,4.5c1.8,1.5,3.6,2.9,5.5,4.3
				l11,8.5l11.4,8c1.9,1.3,3.8,2.7,5.7,4l5.9,3.7l5.9,3.7l2.9,1.9c1,0.6,2,1.2,3,1.8l12.1,6.9c4,2.4,8.2,4.4,12.3,6.5l6.2,3.2
				l3.1,1.6c1,0.5,2.1,1,3.2,1.4L289,829c1.1,0.5,2.1,1,3.2,1.4l3.2,1.3l6.5,2.6c8.6,3.6,17.4,6.4,26.2,9.4
				c4.4,1.4,8.9,2.6,13.4,3.9l6.7,1.9l6.8,1.6c4.5,1.1,9,2.2,13.6,3.2l13.7,2.6l3.4,0.7c1.1,0.2,2.3,0.4,3.4,0.6l6.9,1l6.9,1
				c2.3,0.3,4.6,0.7,6.9,0.9l13.9,1.3l3.5,0.3c1.2,0.1,2.3,0.1,3.5,0.2l7,0.3l7,0.3c1.2,0,2.3,0.1,3.5,0.1l3.5,0l14,0
				c2.3,0,4.7-0.1,7-0.2l7-0.4l7-0.4l1.7-0.1c0.6,0,1.2-0.1,1.7-0.2l3.5-0.4l13.9-1.4c1.2-0.1,2.3-0.3,3.5-0.5l3.5-0.5l6.9-1l6.9-1
				c2.3-0.4,4.6-0.9,6.9-1.3l13.8-2.7c4.5-1.1,9.1-2.3,13.6-3.4l6.8-1.7c2.2-0.6,4.5-1.3,6.7-2l13.4-4.1l13.2-4.7l6.6-2.4
				c2.2-0.8,4.3-1.8,6.5-2.7l13-5.4c4.3-1.9,8.5-4,12.7-6l6.4-3c2.1-1,4.2-2.1,6.3-3.2c8.3-4.4,16.5-9,24.6-13.9
				c8-4.9,16-10,23.6-15.5c7.7-5.4,15.3-11.1,22.6-17c7.3-5.9,14.6-12,21.5-18.5C753.5,743.6,760.3,737,766.8,730.2z"/>
		</g>
		<circle class="st14" cx="512.5" cy="364.3" r="2.7"/>
		<g>
			<polygon class="st107" points="818.2,398 791,390.6 793.9,418.6 776.3,396.6 762.2,421 760.8,392.9 735.1,404.3 750.5,380.7 
				723,374.8 749.3,364.9 730.5,343.9 757.7,351.3 754.8,323.3 772.4,345.3 786.5,320.9 787.8,349 813.6,337.6 798.1,361.2 
				825.7,367.1 799.3,377 			"/>
			<g>
				
					<ellipse transform="matrix(0.9375 -0.3479 0.3479 0.9375 -102.7147 303.5694)" class="st3" cx="794" cy="437.8" rx="6.1" ry="6.1"/>
				<g>
					
						<ellipse transform="matrix(0.7623 -0.6472 0.6472 0.7623 -100.6436 615.3639)" class="st3" cx="787.5" cy="444.7" rx="6.4" ry="6.7"/>
					<path class="st3" d="M755.3,412.3c0.8-1,1.7-1.9,2.7-2.7c1.5-1.2,3.1-2.3,5-2.7c5.3-1,11.7,3.6,14.9,7.5
						c0.2,0.3,0.4,0.5,0.5,0.8c0.9,1.6,4.9,8.7,9.4,15.5c2.7,4,2.1,9.2-1.3,12.3c-0.1,0.1-0.2,0.2-0.3,0.3
						c-3.5,3.1-8.9,2.8-12.5-0.6c-6.8-6.4-14-12.1-14-12.1c-2.8-2.8-4.8-7.3-5.6-11.1c-0.4-1.9-0.4-4,0.4-5.7
						C754.6,413.3,754.9,412.8,755.3,412.3z"/>
				</g>
				<g>
					
						<ellipse transform="matrix(0.4814 -0.8765 0.8765 0.4814 -8.2767 885.9093)" class="st3" cx="744.5" cy="449.9" rx="5.8" ry="6.4"/>
					<path class="st3" d="M754.1,408.4c1.1,0.2,2.2,0.5,3.3,0.9c1.9,0.7,3.9,1.6,5.3,3c1.9,1.9,2.8,4.6,2.7,7.2
						c0,4.1-2.2,7.3-4.1,10.8c-2.1,3.6-4.2,7.3-6.1,11c-2,3.7-6.6,5.2-10.9,3.7c-0.2-0.1-0.3-0.1-0.5-0.2c-4.3-1.6-6.8-6-5.8-10.1
						c1.9-7.9,3.6-17.7,3.6-17.8c0.8-3.1,3.2-5.9,5.9-7.5C749.6,408.2,751.8,408,754.1,408.4z"/>
				</g>
				<g>
					<g>
						<g>
							<path class="st3" d="M633.6,545.5c2.2,24.5,7.2,49.8,17.8,72.1c4.9,10.4,12.3,21.1,23,26c14.5,6.6,28.7,0.7,40.2-8.9
								c8.6-7.2,15.6-16.6,21.8-25.8c9.5-14.1,17.5-29.2,24.9-44.5c2.7-5.5,1.5-12.3-4.1-15.6c-5-2.9-12.9-1.5-15.6,4.1
								c-6.2,12.8-12.8,25.5-20.4,37.5c-5.7,9.2-10,15.4-17,22.7c-1.2,1.3-2.5,2.6-3.9,3.8c-0.6,0.6-1.3,1.1-1.9,1.6
								c-1.9,1.7,1-0.6-0.5,0.4c-1.2,0.8-2.3,1.6-3.6,2.4c-0.6,0.3-1.2,0.6-1.7,1c-0.4,0.2-2.8,1.3-0.9,0.5c1.8-0.8-1.7,0.5-2.5,0.7
								c-0.5,0.1-1.1,0.2-1.6,0.3c-1.4,0.5,2.8,0.1,0.7-0.1c-0.7-0.1-2.3-0.2-3-0.1c-0.3,0.1,2.8,0.7,1.1,0.1
								c-0.5-0.2-1.1-0.3-1.6-0.4c-3-0.7,1.5,1.1-0.4-0.1c-0.9-0.6-1.8-1.2-2.8-1.6c-1.7-0.9,1,1,0.7,0.6c-0.3-0.4-0.8-0.7-1.2-1
								c-0.9-0.8-1.7-1.6-2.5-2.5c-0.4-0.5-0.8-1-1.3-1.5c-1.4-1.5,0.7,1.1,0.4,0.5c-0.6-1.1-1.5-2.1-2.2-3.2
								c-1.4-2.2-2.7-4.6-3.9-6.9c-0.6-1.2-1.2-2.4-1.7-3.6c-0.2-0.4-1.1-2.6-0.4-0.8c0.7,1.7-0.3-0.7-0.5-1.2
								c-1.1-2.7-2.1-5.5-3-8.3c-1.9-5.8-3.5-11.7-4.8-17.6c-1.4-6-2.6-12.1-3.5-18.2c-0.2-1.5-0.4-2.9-0.7-4.4
								c-0.3-1.9-0.1-1,0.1,0.6c-0.1-0.6-0.2-1.2-0.2-1.8c-0.3-2.2-0.5-4.4-0.7-6.7c-0.5-6.1-4.9-11.4-11.4-11.4
								C639.3,534.1,633.1,539.3,633.6,545.5L633.6,545.5z"/>
						</g>
					</g>
					<path class="st12" d="M748.7,557.7c-15.4-4.5-25.2-13.6-29.5-26.9c-0.1,0.5-3.3,13-3.3,13.6c-3.4,20.3,1.4,34,27,41.4
						c25.1,7.3,34.9-3.1,42.6-22.7c0.2-0.5,3.5-13,3.7-13.6C778,559.8,765.2,562.5,748.7,557.7z"/>
					<g>
						<defs>
							<path id="SVGID_94_" d="M747,563.3c-34.5-10-36.4-51.4-27.1-83.1c9.2-31.7,37.9-51.2,64-43.6s39.8,39.5,30.6,71.1
								S781.4,573.4,747,563.3z"/>
						</defs>
						<use xlink:href="#SVGID_94_"  style="overflow:visible;fill:#FFFFFF;"/>
						<clipPath id="SVGID_24_">
							<use xlink:href="#SVGID_94_"  style="overflow:visible;"/>
						</clipPath>
						<path style="opacity:0.4;clip-path:url(#SVGID_24_);fill:#989898;" d="M789.2,496.6c-21.8,20.5-53.8,23.1-78.2,8.4
							c-6.4,27.1-2.9,55.4,23.6,68.2c35.3,17,67-15.1,82.6-47.5c12.9-26.7,9.1-56.2-7.5-73.1C808.8,468.7,802,484.6,789.2,496.6z"/>
					</g>
				</g>
				<g>
					<g>
						<linearGradient id="SVGID_26_" gradientUnits="userSpaceOnUse" x1="775.5593" y1="721.473" x2="775.5593" y2="380.8388">
							<stop  offset="0.2905" style="stop-color:#000000"/>
							<stop  offset="0.3755" style="stop-color:#090909"/>
							<stop  offset="0.5167" style="stop-color:#232222"/>
							<stop  offset="0.6955" style="stop-color:#4C4A4A"/>
							<stop  offset="0.8216" style="stop-color:#6D6A6B"/>
							<stop  offset="0.8506" style="stop-color:#636061"/>
							<stop  offset="0.8998" style="stop-color:#484647"/>
							<stop  offset="0.9628" style="stop-color:#1D1C1C"/>
							<stop  offset="1" style="stop-color:#000000"/>
						</linearGradient>
						<path style="fill:url(#SVGID_26_);" d="M767.9,380c-14.3,42.1-2.4,86.2,5.9,128.2c8.9,45.2,11.4,91.4,7,137.2
							c-2.4,25.1-6.2,50.9-16.6,74.1c-1.8,4.1,4.2,7.6,6,3.5c8.8-19.8,13-40.9,15.8-62.2c3-23,4.3-46.1,3.8-69.3
							c-0.4-22.5-2.5-45-6.1-67.2c-3.7-22.7-9.5-45-13-67.7c-3.8-24.9-4.4-50.6,3.8-74.7C776,377.6,769.3,375.8,767.9,380L767.9,380
							z"/>
					</g>
				</g>
				<path class="st3" d="M774.4,400.4c-1.2,0.5-2.4,1.2-3.4,2c-1.4,1.1-2.6,2.3-3.4,3.9c-2,4.2-0.3,10.1,2.4,13.7
					c0.2,0.3,0.5,0.5,0.7,0.8c1.5,1.3,7.7,7.1,12.9,12.6c3,3.2,7.9,3.7,11.4,1.2c0.1-0.1,0.3-0.2,0.4-0.3c3.6-2.6,4.5-7.5,2.3-11.4
					c-4.2-7.4-8.8-16.1-8.8-16.1c-2.4-3.9-7.2-7.8-12-7.1C776.1,399.9,775.2,400.1,774.4,400.4z"/>
				<path class="st3" d="M755,436.1c1,0,2,0.1,2.9,0.2c1.1-2,2.2-4,3.4-5.9c2-3.4,4.1-6.6,4.1-10.8c0-2.7-0.9-5.4-2.7-7.2
					c-1.5-1.5-3.4-2.3-5.3-3c-1.1-0.4-2.2-0.7-3.3-0.9c-2.3-0.4-4.5-0.3-6.6,1c-2.7,1.6-5,4.4-5.9,7.5c0,0-1.7,9.9-3.6,17.8
					c-0.7,2.7,0.2,5.5,2.1,7.6C744.1,438.5,749.5,436.1,755,436.1z"/>
			</g>
			<g>
				<g>
					<path class="st2" d="M644.2,551.3c-34.8,0-47.7-31-47.7-57.1c0-26.1,21.4-47.3,47.7-47.3s47.7,21.2,47.7,47.3
						C692,520.3,679,551.3,644.2,551.3z"/>
				</g>
				<g>
					<path class="st2" d="M613.3,496.4c-0.5-5-1.1-8.2-1.7-8.9c-8-9.5-18.8-16.8-30-22.3c-35.4-17.2-76.4-19.1-115.7-16.1
						c-9.3,0.7-18.6,1.7-27.7,3.3c-11.6,2-23,5-33.9,9.6c-13.6,5.8-26.4,14.3-36.1,25.6c-0.9,1.1-1.8,4.7-2.5,10.1
						c-5,26.9-1.8,81-0.9,96.5c1.2,15.8,3,29.7,5.8,38.4c13.2,41.8,32.9,81.2,54.3,119.4c7.6,13.6,15.7,27.4,28.1,36.7
						c21.7,16.3,54.3,14.7,75.5-2.2c11.2-8.9,19.2-21.2,26.5-33.6c22.5-37.8,41-78.2,53.4-120.3c2.4-8.1,4-22.1,5.1-38.4
						C614.6,578.3,617,510.4,613.3,496.4z"/>
					<ellipse class="st14" cx="490" cy="344.8" rx="109.5" ry="90.9"/>
					<path class="st130" d="M549.4,413.8c-77.7,0-140.7-57.2-140.7-127.8c0-0.7,0-1.3,0-2c-17.5,16.1-28.1,37.4-28.1,60.8
						c0,50.2,49,90.9,109.5,90.9c27.6,0,52.7-8.5,72-22.4C557.9,413.6,553.7,413.8,549.4,413.8z"/>
					<path class="st3" d="M611.6,487.4c-6.7-6.9-13.4-13.5-16.5-14.5c-10.6-3.7-7.4,23.8-5.4,45.4c2,21.6,25,53.6,25.3,41.3
						C615.6,530.8,615,500.6,611.6,487.4z"/>
					<path class="st131" d="M401.2,539.5c0-25.8,5-50.5,14.1-73c0.6-3.2,1.2-6.3,2-9.4c-4.4,1.3-8.7,2.9-13,4.7
						c-13.6,5.8-26.4,14.3-36.1,25.6c-0.9,1.1-1.8,4.7-2.5,10.1c-5,26.9-1.8,81-0.9,96.5c1.2,15.8,3,29.7,5.8,38.4
						c13.2,41.8,32.9,81.2,54.3,119.4c7.6,13.6,15.7,27.4,28.1,36.7c21.7,16.3,54.3,14.7,75.5-2.2c11.2-8.9,19.2-21.2,26.5-33.6
						c3.9-6.6,7.7-13.2,11.4-20C472.9,718.2,401.2,637.2,401.2,539.5z"/>
					<path class="st3" d="M366.6,487.4c6.7-6.9,13.4-13.5,16.5-14.5c10.6-3.7,7.4,23.8,5.4,45.4c-2,21.6-25,53.9-25.3,41.8
						C362.6,531.1,363.2,500.7,366.6,487.4z"/>
					<g>
						<g>
							<path class="st3" d="M531.9,298.9c-12.2-0.2-23.5,3.7-32.7,10.4c-5.5,4-13,4-18.6,0c-9.2-6.7-20.5-10.5-32.7-10.4
								c-29.8,0.4-53.6,24.5-53.6,54.4c0,30,24.3,54.4,54.4,54.4c12.2,0,23.4-4,32.4-10.7c5.2-3.9,12.4-3.9,17.6,0
								c9.1,6.7,20.3,10.7,32.4,10.7c30,0,54.4-24.3,54.4-54.4C585.5,323.4,561.7,299.3,531.9,298.9z"/>
							<path class="st12" d="M531.1,411.2c-12.6,0-24.5-4-34.5-11.4c-4-3-9.4-3-13.4,0c-10,7.5-22,11.4-34.5,11.4
								c-31.9,0-57.9-26-57.9-57.9c0-15.4,5.9-29.8,16.6-40.7c10.7-10.9,25.1-17,40.5-17.2c12.6-0.2,24.7,3.6,34.8,11
								c4.3,3.1,10.1,3.1,14.4,0c10.2-7.4,22.2-11.2,34.8-11c15.4,0.2,29.7,6.3,40.5,17.2c10.7,10.9,16.6,25.3,16.6,40.7
								C589,385.2,563.1,411.2,531.1,411.2z M489.9,390.4c3.8,0,7.7,1.2,10.9,3.6c8.8,6.6,19.3,10,30.3,10c28,0,50.8-22.8,50.8-50.8
								c0-13.5-5.2-26.2-14.6-35.7c-9.4-9.6-22-14.9-35.5-15.1c-11.1-0.2-21.6,3.2-30.6,9.7c-6.8,4.9-16,4.9-22.8,0
								c-8.9-6.5-19.5-9.8-30.6-9.7c-13.5,0.2-26.1,5.5-35.5,15.1c-9.4,9.5-14.6,22.2-14.6,35.7c0,28,22.8,50.8,50.8,50.8
								c11,0,21.5-3.5,30.3-10C482.2,391.6,486.1,390.4,489.9,390.4z"/>
						</g>
						<circle class="st132" cx="447" cy="355.3" r="20.5"/>
						<circle class="st132" cx="532.3" cy="355.3" r="20.5"/>
						<g>
							<circle class="st7" cx="532.5" cy="354.8" r="33.8"/>
							<g>
								<path class="st7" d="M532.5,391.8L532.5,391.8c-0.3,0-0.6,0-1,0l0.2-9.3c0.3,0,0.5,0,0.8,0L532.5,391.8z"/>
								<path class="st7" d="M526.7,391.3c-0.3-0.1-0.6-0.1-1-0.2l1.1-6.1c0.3,0,0.5,0.1,0.8,0.1L526.7,391.3z"/>
								<path class="st7" d="M521.1,390c-0.3-0.1-0.6-0.2-0.9-0.3l2.1-5.9c0.3,0.1,0.5,0.2,0.8,0.3L521.1,390z"/>
								<path class="st7" d="M515.7,387.7c-0.3-0.1-0.6-0.3-0.9-0.5l3-5.5c0.2,0.1,0.5,0.3,0.7,0.4L515.7,387.7z"/>
								<path class="st7" d="M510.8,384.7c-0.3-0.2-0.5-0.4-0.8-0.6l3.8-4.9c0.2,0.2,0.4,0.3,0.6,0.5L510.8,384.7z"/>
								<path class="st7" d="M506.4,381c-0.2-0.2-0.5-0.5-0.7-0.7l4.5-4.3c0.2,0.2,0.4,0.4,0.6,0.6L506.4,381z"/>
								<path class="st7" d="M502.6,376.6c-0.2-0.3-0.4-0.5-0.6-0.8l5.1-3.5c0.2,0.2,0.3,0.4,0.5,0.7L502.6,376.6z"/>
								<path class="st7" d="M499.6,371.6c-0.1-0.3-0.3-0.6-0.4-0.9l5.6-2.7c0.1,0.2,0.2,0.5,0.4,0.7L499.6,371.6z"/>
								<path class="st7" d="M497.4,366.3c-0.1-0.3-0.2-0.6-0.3-0.9l6-1.8c0.1,0.3,0.2,0.5,0.2,0.8L497.4,366.3z"/>
								<path class="st7" d="M496,360.6c-0.1-0.3-0.1-0.6-0.1-1l6.2-0.8c0,0.3,0.1,0.5,0.1,0.8L496,360.6z"/>
								<path class="st8" d="M572.6,355.8l-12.5-0.2c0-0.3,0-0.5,0-0.8v-0.1h12.5v0.1C572.6,355.1,572.6,355.5,572.6,355.8z"/>
								<path class="st7" d="M504.9,354.9l-2-0.1l-7.4,0c0,0,0,0,0-0.1c0-0.3,0-0.6,0-0.9l9.3,0.2
									C504.9,354.3,504.9,354.6,504.9,354.9L504.9,354.9z"/>
								<path class="st8" d="M563,350.7c0-0.3-0.1-0.5-0.1-0.8l6.1-1c0.1,0.3,0.1,0.6,0.1,1L563,350.7z"/>
								<path class="st8" d="M562,346c-0.1-0.3-0.2-0.5-0.2-0.8l5.9-1.9c0.1,0.3,0.2,0.6,0.3,0.9L562,346z"/>
								<path class="st8" d="M560.2,341.5c-0.1-0.2-0.2-0.5-0.4-0.7l5.5-2.8c0.1,0.3,0.3,0.6,0.4,0.9L560.2,341.5z"/>
								<path class="st8" d="M557.8,337.4c-0.2-0.2-0.3-0.4-0.5-0.7l5-3.7c0.2,0.3,0.4,0.5,0.6,0.8L557.8,337.4z"/>
								<path class="st8" d="M554.8,333.6c-0.2-0.2-0.4-0.4-0.6-0.6l4.4-4.4c0.2,0.2,0.5,0.5,0.7,0.7L554.8,333.6z"/>
								<path class="st8" d="M551.2,330.4c-0.2-0.2-0.4-0.3-0.6-0.5l3.6-5c0.3,0.2,0.5,0.4,0.8,0.6L551.2,330.4z"/>
								<path class="st8" d="M547.1,327.8c-0.2-0.1-0.5-0.3-0.7-0.4l2.8-5.5c0.3,0.1,0.6,0.3,0.9,0.5L547.1,327.8z"/>
								<path class="st8" d="M542.7,325.8c-0.3-0.1-0.5-0.2-0.8-0.3l1.9-5.9c0.3,0.1,0.6,0.2,0.9,0.3L542.7,325.8z"/>
								<path class="st8" d="M538.1,324.6c-0.3,0-0.5-0.1-0.8-0.1l1-6.1c0.3,0,0.6,0.1,1,0.2L538.1,324.6z"/>
								<path class="st8" d="M533.3,327.2c-0.3,0-0.5,0-0.8,0l-0.1,0l0-12.5l0.1,0c0.3,0,0.6,0,0.9,0L533.3,327.2z"/>
							</g>
						</g>
					</g>
					<path class="st12" d="M543.7,551c-1.6,0-3-1.3-3-3v0c0-1.6,1.3-3,3-3H567c4.3-5.3,6.9-12,6.9-19.4c0-17-13.7-30.7-30.7-30.7
						s-30.7,13.7-30.7,30.7c0,11,5.8,20.7,14.6,26.1l21.2-39.6h-19l3.1,5.3c0.4,0.6,0.5,1.3,0.3,2c-0.2,0.7-0.6,1.3-1.2,1.7
						c-0.4,0.3-0.9,0.4-1.4,0.4c-0.9,0-1.8-0.5-2.2-1.2l0,0l-5.6-9.4c-0.3-0.4-0.4-0.9-0.4-1.4l0-0.1c0-1.4,1.2-2.6,2.7-2.6h28.3
						c0.7,0,1.4,0.2,1.9,0.6l0,0c1.2,0.9,1.6,2.5,0.9,3.8l-23.2,43.2c3.4,1.3,7,2,10.8,2c6.4,0,12.4-2,17.3-5.3H543.7z"/>
					<g>
						<path class="st12" d="M464.8,698.2c-17.7-38-27.1-82-27.1-127.3c0-19.6,1.7-39,5.2-57.8c3.3-18.2,8.3-35.9,14.7-52.6
							l-13.2-5.1c-6.7,17.5-11.9,36-15.4,55.1c-3.6,19.6-5.4,40-5.4,60.4c0,47.3,9.8,93.4,28.4,133.3c17.1,36.7,40.9,66.7,69.1,87.3
							c2.6-1.5,5.1-3.2,7.5-5.1c1.5-1.2,3-2.5,4.4-3.9C505.2,763.3,481.7,734.2,464.8,698.2z"/>
					</g>
					<path class="st3" d="M549.8,460.4c3.6-1.4,3.4-4.3-0.3-5.5c-17.3-5.9-39.1-7-60.4-7c-21.2,0-43,1.1-60.3,7
						c-3.7,1.3-3.9,4.2-0.3,5.5c12.3,4.8,33.1,7.6,60.7,7.6C516.7,468,537.5,465.1,549.8,460.4z"/>
					<circle class="st12" cx="543.2" cy="578.2" r="9.1"/>
				</g>
			</g>
			<g class="st31">
				<path class="st130" d="M674.3,524.8c-32.1,0-58.2-26.1-58.2-58.2c0-3.8,0.4-7.6,1.1-11.2c-12.4,8.5-20.5,22.8-20.5,38.9
					c0,26.1,13,57.1,47.7,57.1c21.8,0,35-12.2,41.9-27.7C682.4,524.3,678.4,524.8,674.3,524.8z"/>
			</g>
			<g>
				<defs>
					<path id="SVGID_97_" d="M644.2,551.3c-34.8,0-47.7-31-47.7-57.1c0-26.1,21.4-47.3,47.7-47.3s47.7,21.2,47.7,47.3
						C692,520.3,679,551.3,644.2,551.3z"/>
				</defs>
				<clipPath id="SVGID_28_">
					<use xlink:href="#SVGID_97_"  style="overflow:visible;"/>
				</clipPath>
				
					<path style="clip-path:url(#SVGID_28_);fill:none;stroke:#CC66FF;stroke-width:14.1914;stroke-linecap:round;stroke-miterlimit:10;" d="
					M709,494.7c-10.4,14.1-56.3,9.8-56.3,9.8"/>
			</g>
			<g>
				<g>
					
						<ellipse transform="matrix(0.2885 -0.9575 0.9575 0.2885 -1.5847 925.8491)" class="st3" cx="622.2" cy="464" rx="5.6" ry="5.7"/>
					<path class="st3" d="M653,462.7c-0.2,1.2-0.5,2.4-1,3.5c-0.6,1.5-1.5,2.9-2.7,3.9c-3.3,2.8-9.1,2.5-12.9,0.9
						c-0.3-0.1-0.6-0.3-0.9-0.5c-1.5-1-8.1-5.4-14.2-8.7c-3.5-2-5.1-6.2-3.7-10c0.1-0.1,0.1-0.3,0.2-0.4c1.5-3.8,5.7-5.8,9.7-4.7
						c7.6,2.1,16.4,4.3,16.5,4.3c4.1,1.2,8.6,4.7,9.1,9.2C653.1,461.1,653.1,461.9,653,462.7z"/>
				</g>
				<g>
					
						<ellipse transform="matrix(0.6773 -0.7357 0.7357 0.6773 -136.9781 584.3196)" class="st3" cx="597.6" cy="448.3" rx="6.7" ry="6.4"/>
					<path class="st3" d="M630.6,416.8c0.9,0.9,1.5,2,2.2,3.2c0.9,1.7,1.7,3.5,1.8,5.3c0.1,5.4-5.6,10.9-10,13.3
						c-0.3,0.2-0.6,0.3-0.9,0.4c-1.8,0.6-9.4,3.3-16.9,6.6c-4.4,1.9-9.5,0.5-11.9-3.4c-0.1-0.1-0.2-0.3-0.2-0.4
						c-2.4-4-1.2-9.3,2.7-12.2c7.5-5.6,14.4-11.7,14.4-11.7c3.2-2.3,8-3.4,11.9-3.6c2-0.1,4,0.3,5.6,1.4
						C629.8,416,630.3,416.4,630.6,416.8z"/>
				</g>
				<g>
					
						<ellipse transform="matrix(5.426880e-02 -0.9985 0.9985 5.426880e-02 117.4489 1039.2898)" class="st3" cx="607.4" cy="457.6" rx="5.9" ry="5.4"/>
					<path class="st3" d="M642.3,454.5c-0.1,1-0.3,2.1-0.6,3.1c-0.5,1.8-1.2,3.7-2.4,5.2c-1.6,1.9-4,2.9-6.5,3
						c-3.8,0.3-6.9-1.5-10.3-3.1c-3.5-1.7-7-3.3-10.6-4.9c-3.5-1.6-5.3-5.8-4.2-9.8c0-0.1,0.1-0.3,0.1-0.4c1.2-4.1,5.1-6.7,9-6.1
						c7.4,1.2,16.7,2.1,16.7,2.1c2.9,0.5,5.6,2.5,7.3,4.9C642.2,450.3,642.5,452.4,642.3,454.5z"/>
				</g>
				<g>
					<g>
						<g>
							<path class="st3" d="M310.8,473.5c8.7,29.6,17.8,59.4,35.4,85.3c11.4,16.7,25.8,31.7,43.6,41.6
								c20.5,11.3,44.2,15.4,67.4,13.1c38.9-3.8,75.3-21.2,108.2-41.6c12.5-7.7,1-27.5-11.5-19.7c-28.1,17.4-57.5,32.2-90.3,37.6
								c-0.9,0.1-1.8,0.3-2.7,0.4c-2,0.3,2.7-0.3-0.6,0.1c-1.4,0.2-2.7,0.3-4.1,0.4c-3.1,0.3-6.3,0.5-9.4,0.5c-2.7,0-5.4,0-8-0.1
								c-1.2-0.1-2.4-0.1-3.7-0.2c-0.8-0.1-1.5-0.1-2.2-0.2c-0.3,0-3.3-0.4-1.6-0.2c1.5,0.2-2.3-0.4-2.8-0.5
								c-1.1-0.2-2.3-0.4-3.4-0.7c-2.6-0.6-5.2-1.2-7.7-2c-2.2-0.7-4.4-1.4-6.6-2.2c-0.5-0.2-1-0.4-1.5-0.6
								c-2.5-0.9,1.7,0.8,0.1,0.1c-1.2-0.5-2.4-1.1-3.6-1.7c-4.2-2-8.2-4.4-12.1-7c-0.9-0.6-1.9-1.3-2.8-2c-1-0.7-2.7-2.1-0.7-0.5
								c-1.9-1.5-3.7-3-5.5-4.6c-3.3-3-6.5-6.2-9.5-9.6c-1.4-1.6-2.8-3.2-4.1-4.8c-0.4-0.5-0.8-1-1.2-1.5c-0.9-1.2,1.3,1.8,0.4,0.5
								c-0.7-1-1.5-2-2.2-3c-5.2-7.2-9.7-14.8-13.7-22.7c-1.9-3.7-3.7-7.6-5.4-11.4c-0.4-0.8-0.7-1.7-1.1-2.5
								c1.4,3.2,0.2,0.4-0.1-0.4c-0.8-2-1.6-4.1-2.4-6.1c-5-13.1-8.7-26.5-12.7-39.9C328.7,453.4,306.7,459.3,310.8,473.5
								L310.8,473.5z"/>
						</g>
					</g>
					<path class="st12" d="M557.3,560.1c-12.9-9.6-18.9-21.4-18.3-35.5c-0.3,0.5-7.6,11.1-7.8,11.6c-10.2,17.9-10.4,32.3,11,48.2
						c21,15.6,33.8,9.2,47.8-6.5c0.4-0.4,7.8-11,8.1-11.5C584,572.2,571.1,570.4,557.3,560.1z"/>
					<g>
						<defs>
							<path id="SVGID_99_" d="M553.7,564.8c-28.9-21.3-16.3-60.8,3.3-87.3c19.6-26.5,53.3-34.9,75.2-18.7
								c21.9,16.2,23.7,50.8,4.1,77.3C616.6,562.7,582.6,586.2,553.7,564.8z"/>
						</defs>
						<use xlink:href="#SVGID_99_"  style="overflow:visible;fill:#FFFFFF;"/>
						<clipPath id="SVGID_30_">
							<use xlink:href="#SVGID_99_"  style="overflow:visible;"/>
						</clipPath>
						<path style="opacity:0.4;clip-path:url(#SVGID_30_);fill:#989898;" d="M616.5,516.8c-27.5,11.7-58.5,3-76.3-19.2
							c-15.4,23.2-21.9,51-1.5,72.1c27.2,28.2,68.1,9,94-16c21.3-20.6,28-49.6,18.2-71.2C644.5,497.5,632.6,510,616.5,516.8z"/>
					</g>
				</g>
			</g>
			<g>
				<g>
					<path class="st14" d="M335.8,551.3c34.8,0,47.7-31,47.7-57.1c0-26.1-21.4-47.3-47.7-47.3S288,468.1,288,494.2
						C288,520.3,301,551.3,335.8,551.3z"/>
					<path class="st130" d="M365.3,524.8c-32.1,0-58.2-26.1-58.2-58.2c0-3.7,0.3-7.3,1-10.8c-12.1,8.6-20,22.6-20,38.5
						c0,26.1,13,57.1,47.7,57.1c21.9,0,35.1-12.3,41.9-27.9C373.8,524.3,369.6,524.8,365.3,524.8z"/>
				</g>
				<g>
					<defs>
						<path id="SVGID_101_" d="M335.8,551.3c34.8,0,47.7-31,47.7-57.1c0-26.1-21.4-47.3-47.7-47.3S288,468.1,288,494.2
							C288,520.3,301,551.3,335.8,551.3z"/>
					</defs>
					<clipPath id="SVGID_32_">
						<use xlink:href="#SVGID_101_"  style="overflow:visible;"/>
					</clipPath>
					
						<path style="clip-path:url(#SVGID_32_);fill:none;stroke:#CC66FF;stroke-width:14.1914;stroke-linecap:round;stroke-miterlimit:10;" d="
						M271,494.7c10.4,14.1,56.3,9.8,56.3,9.8"/>
				</g>
			</g>
			<g>
				<path class="st136" d="M777.8,370.1l-5.8-1.9c-0.1,0-0.1-0.1-0.1-0.2l3.9-11.8c0-0.1,0.1-0.1,0.2-0.1l5.8,1.9
					c0.1,0,0.1,0.1,0.1,0.2l-3.9,11.8C778,370,777.9,370.1,777.8,370.1z"/>
				<path d="M774.4,381.7l-6.5-2.1c-0.9-0.3-1.4-1.3-1.1-2.2l5.2-16c0.3-0.9,1.3-1.4,2.2-1.1l6.5,2.1c0.9,0.3,1.4,1.3,1.1,2.2
					l-5.2,16C776.3,381.5,775.3,382,774.4,381.7z"/>
			</g>
		</g>
		<g>
			<path class="st107" d="M492.2,181.9c-0.3-0.7-0.6-1.5-0.6-2.3c-0.6-6.4,7.9-12.6,12.5-16.2c10.5-8.4,22.5-15.2,29.1-26.9
				c4.7-8.4,6.2-18.8,2.1-28.4c-4-9.3-13-17-23.1-21.4c-18.7-8.2-42.5-8.1-57.5,2.5c-13.2,9.4-19,29.4-6.9,44.1
				c5.5,6.7,15.9,10.9,23.6,7.8c4.9-2,8-6.9,7.5-12c-0.6-6.4-6.2-13.1-3.7-18.7c4.5-10.1,30.2-8.9,37,0.7c2.4,3.3,2.5,7.4,1.4,10.8
				c-5.3,16.3-25.7,22-36.3,34.4c-8.5,9.9-13.4,25.7-9,39.2c2.9,8.9,12.6,16.6,22.3,12.7c7.9-3.2,11.2-12.2,6.3-19.8
				C495.3,186.4,493.2,184.3,492.2,181.9z"/>
			<path class="st107" d="M491.9,220.5c-15.5,0-15.5,20.5,0,20.5C507.4,241,507.5,220.5,491.9,220.5z"/>
		</g>
		<g>
			<path class="st3" d="M134.2,702.3c-2.8,1.6-8.5,6.1-9.8,9.3c-1.2,3.3,0.1,9,2.6,12.4c2.9,3.8,7.7,7,11.8,8
				c5.5,1.3,9.5-6.1,12.4-10.3s4.4-9.9,2.9-15.8c-0.5-1.8-2.1-5.6-3.7-6.3C144.5,697,138.3,700,134.2,702.3z"/>
			<path class="st3" d="M167.5,736.5c4.2-1,6.9-5.5,7.3-9.9s-1.1-8.6-2.5-12.8c-2.3-6.8-5.8-14.7-12.8-16c-5.2-1-10.2,2-14.7,5
				c-2.1,1.4-4.2,2.8-5.2,5.1c-1.6,3.7,0.7,7.8,2.8,11.2c2.3,3.6,2,3,4.3,6.5c1.4,2.2,2.9,4.4,5.1,5.6c3.9,2,8.5,0.3,12.5-1.5
				L167.5,736.5z"/>
			<path class="st3" d="M123.8,707.9c0.8,0.7,5.7,3.8,9.5,2.3c3.7-1.5,7.4-3.4,10.5-6.1c1.6-1.4,4.4-4.5,5.6-6.3
				c1.6-2.3-0.4-9.1-0.9-10.2c-3.7-7.8-13-6.8-20.1-3.1c-7.1,3.8-10.2,6.6-8.7,15.3C120.2,702.4,119.7,704.5,123.8,707.9z"/>
		</g>
		<g>
			<g>
				<g>
					<path class="st3" d="M58.7,561.6c-6.9,17-4.7,39.7,1.8,56.5c6.8,17.7,22.5,32.9,42.8,25.7c9.8-3.4,5.6-19-4.3-15.6
						c-2.2,0.8-6,1.3-7.7,1.2c-2-0.2-4.9-1.6-6.4-2.7c-5.2-4.1-8.2-10.5-10.3-17c-4.4-13.9-5.8-30.5-0.4-43.8c1.6-4-1.8-8.9-5.6-9.9
						C64,554.6,60.4,557.5,58.7,561.6L58.7,561.6z"/>
				</g>
			</g>
			<g>
				<path class="st116" d="M83,566.7c-2.8,2.7-8.1,3.4-12,3.9c-4.4,0.6-8.8,1.2-13.1,0.6c-11.4-1.5-20.4-11.1-24.4-21.9
					s-3.7-22.6-2.6-34c0.6-6.9,1.6-14,4.6-20.2c3.1-6.3,8.6-11.7,15.4-12.9c4.2-0.8,8.5,0,12.7,0.9c7.7,1.5,15.6,3,22.6,6.6
					s13.2,9.5,15.3,17.1c1.3,5,0.8,10.3,0.1,15.4C98.9,539.7,92.4,557.8,83,566.7z"/>
				<path class="st126" d="M94,549.6c-0.5,1.3-1.1,2.6-1.7,3.9c-17.7,6.5-42.6,6-59.2-5.1c-0.4-1.2-1-3.1-1.3-4.6
					C48.4,555.6,76.9,555.8,94,549.6z"/>
			</g>
			
				<ellipse transform="matrix(0.2508 -0.9681 0.9681 0.2508 -422.6174 437.262)" class="st114" cx="71.2" cy="491.6" rx="5.9" ry="20.6"/>
			<g>
				<path class="st3" d="M82.8,491.3c3.2,0.3,10.3-0.2,13.1-2.1c2.8-2,4.9-7.4,4.8-11.5c-0.2-4.7-2.4-10-5.1-13.1
					c-3.7-4.1-11.1-0.4-15.8,1.4c-4.7,1.7-9.1,5.5-11.1,11.2c-0.6,1.7-1.4,5.7-0.5,7.2C71.5,489.8,78.3,490.9,82.8,491.3z"/>
				<path class="st3" d="M71.9,493.1c4.6,0.3,9.3-0.4,12.5-2.2c6.1-3.4,6.2-10.3,4.1-15.6c-2.9-7.5-11.4-8-18.7-4.8
					c-3.6,1.6-6.9,3.9-9.5,6.6c-2.1,2.2-5,7-3,9.8C59.9,490.6,65.9,492.7,71.9,493.1z"/>
				<path class="st3" d="M114.1,470.7c-0.6-0.9-4.9-6-9.7-6c-4.6,0-9.4,0.4-13.8,1.8c-2.3,0.7-6.4,2.7-8.4,4
					c-2.6,1.6-2.8,9-2.6,10.3c1.3,9.1,12,11.8,21.2,11c9.2-0.9,13.7-2.4,15-11.5C116.1,477.5,117.4,475.6,114.1,470.7z"/>
			</g>
		</g>
		<g>
			<g>
				<path class="st3" d="M117.8,365.7c-0.5,0-1.1-0.1-1.6-0.1c-1.9-0.2,0.6,0.1-0.6-0.1c-1.5-0.3-2.9-0.5-4.3-0.9
					c-3.5-0.9-6.9-2-10.3-3.4c-7-2.9-14.8-7.6-20.7-13.2c-17.5-16.7-16.9-40.1-7.6-61c3.4-7.5-7.8-14.1-11.2-6.5
					c-9.1,20.3-12.7,43.5-0.9,63.6c8.5,14.4,22.9,24.3,38.3,30.2c6,2.3,12.4,4.1,18.9,4.4C126.1,379,126.1,366.1,117.8,365.7
					L117.8,365.7z"/>
			</g>
		</g>
		<g>
			<g>
				<defs>
					<path id="SVGID_103_" d="M55,295.3c-3.5-5.7-0.7-14.7,0.9-17.5c4.8-8.2,10.5-15.6,16.2-23.1c13.4-17.7,29.3-36.9,51.2-40.6
						c23.9-4.1,41.1,28.6,29.4,48.3c-5.7,9.6-22.1,11.4-32,14.7c-6.9,2.3-13.9,5-20,9.1c-6.3,4.2-11.7,9.8-18.3,13.7
						c-6.7,3.9-13.4,5.2-20.6,2.3C60.9,301.6,55.5,296.1,55,295.3z"/>
				</defs>
				<use xlink:href="#SVGID_103_"  style="overflow:visible;fill:#F8AD1A;"/>
				<clipPath id="SVGID_34_">
					<use xlink:href="#SVGID_103_"  style="overflow:visible;"/>
				</clipPath>
				<path style="opacity:0.8;clip-path:url(#SVGID_34_);fill:#EACAB0;" d="M85,262.7c0-14.7,5.7-28.1,14.9-38.1
					c-10.7,8.1-19.7,19.3-27.8,30c-5.7,7.6-11.4,15-16.2,23.1c-1.6,2.8-4.4,11.8-0.9,17.5c0.5,0.8,5.9,6.3,6.9,6.7
					c7.2,2.9,13.9,1.6,20.6-2.3c3.8-2.2,7.2-5,10.7-7.8C87.9,283.4,85,273.4,85,262.7z"/>
				<g style="clip-path:url(#SVGID_34_);">
					<path class="st14" d="M87.7,296.1c-1.7,1.3-3.4,2.5-5.2,3.5c-0.1,0-0.1,0.1-0.2,0.1c-6.1-4.3-11.3-9.7-15.2-16.1
						c-2.8-4.5-4.8-9.4-6-14.1c1.6-2.4,3.3-4.7,5-7C66.7,273,73.6,287.3,87.7,296.1z"/>
				</g>
				<g style="clip-path:url(#SVGID_34_);">
					<path class="st104" d="M129.7,274C129.7,274,129.7,274,129.7,274C129.7,274,129.7,274,129.7,274z"/>
				</g>
				<g style="clip-path:url(#SVGID_34_);">
					<path class="st14" d="M126.7,274.9c1-0.3,2-0.6,2.9-0.9C128.7,274.3,127.7,274.6,126.7,274.9
						C126.7,274.9,126.7,274.9,126.7,274.9z"/>
				</g>
				<g style="clip-path:url(#SVGID_34_);">
					<path class="st14" d="M132.4,273.2c-0.9,0.3-1.8,0.5-2.7,0.8C130.6,273.7,131.5,273.5,132.4,273.2z"/>
				</g>
				<path style="clip-path:url(#SVGID_34_);fill:none;stroke:#FFFFFF;stroke-width:6.0332;stroke-miterlimit:10;" d="M133.8,276.2
					c2.1-10.2,0.5-21-3.4-30.6c-5.9-14.5-17.1-26.8-30.9-34.1"/>
				
					<ellipse transform="matrix(0.9501 -0.3119 0.3119 0.9501 -67.1764 57.7087)" style="clip-path:url(#SVGID_34_);fill:#102A4C;" cx="146.8" cy="238.9" rx="7.1" ry="17.1"/>
			</g>
			<g>
				<path class="st106" d="M168.2,224c3.3-1.3,6.4-2.5,10-2.4c1.3,0,2.7,0.3,3.8,1c2.8,1.7,3.5,5.9,1.8,8.6c-2.4,3.8-6.3,3.2-7.2,2
					c-1.3-1.7-7.6-1.3-10.5-0.7c-1.5,0.3-5.5,2-7.1,1.9s-2-2.1-1.9-3.7C156.6,231.1,164.4,225.4,168.2,224z"/>
			</g>
			<g>
				<path class="st106" d="M154.2,237.7c3.5-2.7,10.6-5.1,14.9-4.6c1.4,0.1,2.9,0.4,4.2,0c1.2-0.4,2-1.4,2.6-2.5
					c1.3-2.4,1.2-5.6-0.5-7.6c-1.6-1.8-4.2-2.4-6.6-2c-2.4,0.4-4.5,1.7-6.4,3.1c-3.9,2.8-7.3,6.3-10.1,10.2
					C151.7,237.2,154.2,237.7,154.2,237.7z"/>
			</g>
			<g>
				<path class="st106" d="M151.2,246.7c1-4.3,4.9-10.7,8.5-13.1c1.2-0.8,2.5-1.5,3.2-2.7c0.6-1.1,0.6-2.4,0.4-3.6
					c-0.6-2.6-2.6-5.1-5.3-5.5c-2.4-0.4-4.8,0.9-6.3,2.7c-1.5,1.8-2.4,4.2-3,6.5c-1.2,4.6-1.6,9.5-1.3,14.3
					C148.9,247.9,151.2,246.7,151.2,246.7z"/>
			</g>
		</g>
		<ellipse class="st14" cx="466.7" cy="349.9" rx="2.7" ry="2.6"/>
		<ellipse class="st14" cx="549.2" cy="349.8" rx="2.7" ry="2.6"/>
		<g>
			<path class="st113" d="M133.4,164.4c11.9-14.4,24.9-27.9,38.7-40.6c13.9-12.6,28.6-24.3,44.2-35c7.8-5.3,15.7-10.4,23.9-15.2
				c2-1.2,4-2.4,6.1-3.5l6.2-3.4c4.2-2.2,8.3-4.5,12.5-6.7l12.8-6.1c2.1-1,4.3-2,6.4-3l6.6-2.7c4.4-1.8,8.8-3.6,13.2-5.4l13.4-4.7
				c2.2-0.8,4.5-1.6,6.7-2.3l6.8-2c4.6-1.3,9.1-2.7,13.7-4l13.9-3.3c2.3-0.5,4.6-1.2,7-1.6l7-1.3l7-1.3c2.3-0.4,4.7-0.9,7-1.2
				l14.2-1.9l3.5-0.5c0.6-0.1,1.2-0.2,1.8-0.2l1.8-0.2l7.1-0.6l7.1-0.6c2.4-0.2,4.8-0.4,7.1-0.5l14.3-0.5l3.6-0.1c1.2,0,2.4,0,3.6,0
				l7.2,0.1l7.2,0.1c1.2,0,2.4,0,3.6,0.1l3.6,0.2l14.3,0.9c2.4,0.1,4.8,0.4,7.1,0.7l7.1,0.8l7.1,0.8c1.2,0.1,2.4,0.3,3.6,0.5
				l3.5,0.6l14.2,2.3c4.7,0.9,9.4,2,14.1,3c2.3,0.5,4.7,1,7,1.5l7,1.8c4.6,1.2,9.3,2.4,13.9,3.7c9.1,2.9,18.4,5.6,27.3,9.1l6.8,2.5
				l3.4,1.3c1.1,0.4,2.2,0.9,3.3,1.4l13.3,5.7c1.1,0.5,2.2,0.9,3.3,1.4l3.2,1.6l6.5,3.2c4.3,2.1,8.7,4.1,12.9,6.5l12.7,6.9
				c1.1,0.6,2.1,1.2,3.1,1.8l3.1,1.9l6.2,3.8l6.2,3.8c2,1.3,4,2.7,6,4l11.9,8.2l11.5,8.7c1.9,1.5,3.9,2.9,5.7,4.4l5.5,4.6
				c3.7,3.1,7.4,6.2,11,9.3l10.6,9.8l2.7,2.5c0.9,0.8,1.8,1.6,2.6,2.5l5.1,5.2l5.1,5.2l2.5,2.6l1.3,1.3l1.2,1.4
				c6.3,7.3,12.9,14.4,18.8,22.1c12.3,14.9,22.9,31.1,33.1,47.5l7.2,12.6c1.2,2.1,2.4,4.2,3.5,6.3l3.3,6.5l6.5,13l5.8,13.3l2.9,6.6
				l2.6,6.8l5.2,13.5l4.5,13.8l2.2,6.9l1.9,7l3.7,14l3,14.2c0.5,2.4,1,4.7,1.5,7.1l1.2,7.2c0.8,4.8,1.6,9.5,2.3,14.3l1.6,14.4
				l0.4,3.6c0.1,1.2,0.3,2.4,0.3,3.6l0.5,7.2l0.5,7.2c0.1,2.4,0.4,4.8,0.4,7.2l0.2,14.5c0.2,4.8-0.2,9.7-0.3,14.5l-0.3,7.2l-0.1,3.6
				l-0.3,3.6l-1.2,14.4c-0.1,1.2-0.2,2.4-0.3,3.6l-0.5,3.6l-1,7.2c-1.1,9.6-3.1,19.1-4.8,28.6c-0.4,2.4-1.1,4.7-1.6,7.1l-1.7,7
				l-1.7,7l-2,7c-1.3,4.6-2.6,9.3-4,13.9l-4.7,13.7l-1.2,3.4c-0.4,1.1-0.8,2.3-1.2,3.4l-2.7,6.7l-2.7,6.7c-0.9,2.2-1.7,4.5-2.8,6.7
				l-5.9,13.2l-1.5,3.3c-0.5,1.1-1.1,2.2-1.6,3.2l-3.3,6.4l-3.3,6.4c-0.6,1.1-1.1,2.2-1.7,3.2l-1.8,3.1l-7.2,12.5
				c-1.2,2.1-2.5,4.1-3.8,6.1l-3.9,6.1l-3.9,6.1c-0.6,1-1.3,2-2,3l-2.1,2.9l-8.4,11.7c-2.9,3.8-5.9,7.6-8.9,11.3l-4.5,5.6l-4.7,5.4
				c-3.2,3.6-6.3,7.2-9.5,10.8l-10,10.3c-1.7,1.7-3.3,3.5-5,5.1l-5.3,4.9c-3.5,3.3-7,6.6-10.6,9.8l-11,9.3l-2.8,2.3
				c-0.9,0.8-1.8,1.5-2.8,2.3l-5.7,4.3l-5.7,4.3l-2.9,2.2c-1,0.7-1.9,1.5-2.9,2.1l-11.9,8.1l-3,2c-1,0.7-2,1.4-3,2l-6.1,3.7
				c-4.1,2.5-8.1,5-12.3,7.4l-12.6,6.8c-2.1,1.1-4.2,2.3-6.3,3.4l-6.5,3.1l-12.9,6.1l-13.2,5.5l-6.6,2.7c-2.2,0.9-4.5,1.6-6.7,2.4
				l-13.5,4.7c-4.5,1.4-9.1,2.7-13.7,4.1l-6.8,2c-2.3,0.6-4.6,1.1-6.9,1.7l-13.8,3.3c-4.7,0.9-9.3,1.8-14,2.7l-7,1.3l-7,1l-14.1,1.9
				l-14.2,1.2c-2.4,0.2-4.7,0.4-7.1,0.6l-7.1,0.2l-7.1,0.2l-3.5,0.1c-1.2,0-2.4,0.1-3.5,0.1c-9.4-0.2-18.9-0.1-28.3-0.9l-7-0.5
				l-3.5-0.2c-1.2-0.1-2.3-0.2-3.5-0.4l-14-1.6l-3.5-0.4l-3.5-0.6l-7-1.2c-4.6-0.8-9.3-1.4-13.8-2.5l-13.7-3l-1.7-0.4l-1.7-0.5
				l-3.4-0.9l-6.8-1.8l-6.8-1.8c-2.2-0.6-4.5-1.4-6.7-2.1l-13.3-4.4c36.2,9,73.2,14,110.2,13.7c9.2,0.2,18.4-0.5,27.6-0.9
				c1.2,0,2.3-0.2,3.4-0.3l3.4-0.3l6.9-0.7l6.9-0.7c2.3-0.3,4.6-0.6,6.8-1l13.6-2l13.5-2.6l6.7-1.3l6.7-1.6
				c4.4-1.1,8.9-2.1,13.3-3.3l13.2-3.9c2.2-0.7,4.4-1.3,6.6-2l6.5-2.3c4.3-1.5,8.6-3,12.9-4.6l12.7-5.2c2.1-0.9,4.2-1.7,6.3-2.6
				l6.2-2.9l12.4-5.8l12.1-6.4l6-3.2l5.9-3.5l11.7-7c3.8-2.4,7.6-5,11.4-7.5l5.7-3.7c1-0.6,1.9-1.3,2.8-2l2.7-2l11-8.1
				c0.9-0.7,1.8-1.4,2.7-2.1l2.6-2.2l5.3-4.3l5.3-4.3c0.9-0.7,1.7-1.5,2.6-2.2l2.5-2.3l10.1-9.1c3.3-3.1,6.5-6.4,9.7-9.5l4.8-4.8
				c1.6-1.6,3.1-3.3,4.6-5l9.2-10l8.7-10.4l4.3-5.2l4.1-5.4c2.7-3.6,5.5-7.2,8.1-10.8l7.6-11.2l1.9-2.8c0.6-0.9,1.3-1.9,1.8-2.8
				l3.5-5.8l3.5-5.8c1.2-1.9,2.4-3.8,3.4-5.8l6.5-11.9l1.6-3c0.5-1,1-2,1.5-3l3-6.1l3-6.1c0.5-1,1-2,1.5-3l1.3-3.1l5.4-12.4
				c0.9-2,1.7-4.2,2.5-6.3l2.4-6.3l2.4-6.3c0.4-1,0.8-2.1,1.1-3.2l1-3.2l4.1-12.9c1.2-4.3,2.4-8.7,3.5-13l1.8-6.5l1.4-6.6
				c0.9-4.4,2-8.8,2.9-13.2c1.5-8.9,3.3-17.7,4.2-26.6l0.8-6.7l0.4-3.3c0.1-1.1,0.2-2.2,0.3-3.4l1-13.4l0.3-3.4l0.1-3.4l0.2-6.7
				c0.1-4.5,0.4-9,0.2-13.5l-0.2-13.5c0-2.2-0.2-4.5-0.4-6.7l-0.4-6.7l-0.4-6.7c0-1.1-0.2-2.2-0.3-3.4l-0.4-3.3l-1.5-13.4
				c-0.7-4.4-1.5-8.9-2.2-13.3l-1.1-6.6c-0.4-2.2-0.9-4.4-1.4-6.6l-2.9-13.2l-3.5-13l-1.7-6.5l-2.1-6.4l-4.1-12.8l-4.8-12.6
				l-2.4-6.3l-2.7-6.2l-5.4-12.4l-6-12.1l-3-6c-1-2-2.2-3.9-3.3-5.9l-6.6-11.8c-9.3-15.3-19.1-30.5-30.4-44.5
				c-5.4-7.2-11.4-13.9-17.3-20.7l-1.1-1.3l-1.2-1.2l-2.3-2.4l-4.6-4.9l-4.6-4.9c-0.8-0.8-1.6-1.6-2.4-2.4l-2.4-2.3l-9.7-9.3
				c-3.3-3-6.8-5.9-10.2-8.9l-5.1-4.4c-1.7-1.4-3.5-2.8-5.3-4.2l-10.6-8.3l-11-7.8c-1.8-1.3-3.6-2.6-5.5-3.9l-5.7-3.7l-5.7-3.7
				l-2.8-1.8c-0.9-0.6-1.9-1.2-2.9-1.8l-11.7-6.8c-3.9-2.3-7.9-4.3-11.9-6.4l-6-3.1l-3-1.6c-1-0.5-2.1-0.9-3.1-1.4L602,71.6
				c-1-0.5-2-1-3.1-1.4l-3.1-1.3l-6.3-2.5c-8.3-3.6-16.9-6.3-25.5-9.3c-4.3-1.4-8.7-2.6-13-3.9l-6.5-1.9l-6.6-1.6
				c-4.4-1.1-8.8-2.2-13.2-3.2l-13.3-2.6l-3.3-0.7c-1.1-0.2-2.2-0.5-3.3-0.6l-6.7-1l-6.7-1c-2.2-0.3-4.5-0.7-6.7-0.9l-13.5-1.3
				l-3.4-0.3c-1.1-0.1-2.3-0.1-3.4-0.2l-6.8-0.3l-6.8-0.4c-1.1-0.1-2.3-0.1-3.4-0.2l-3.4,0L430,36.8c-2.3-0.1-4.5,0.1-6.8,0.2
				l-6.8,0.3l-6.8,0.3l-1.7,0.1c-0.6,0-1.1,0.1-1.7,0.2l-3.4,0.3l-13.6,1.3c-4.5,0.5-9,1.2-13.6,1.8l-6.8,0.9
				c-2.3,0.3-4.5,0.8-6.7,1.2l-13.5,2.6c-4.5,1-8.9,2.1-13.3,3.2l-6.7,1.6c-2.2,0.6-4.4,1.3-6.6,1.9l-13.2,3.9l-13,4.5l-6.5,2.3
				c-2.1,0.8-4.3,1.7-6.4,2.6L270.2,71c-4.2,1.8-8.4,3.8-12.5,5.8l-6.3,2.9c-2.1,0.9-4.1,2.1-6.2,3.1c-8.2,4.2-16.3,8.6-24.2,13.3
				C189.1,114.9,159.6,137.9,133.4,164.4z"/>
		</g>
	</g>
</g>
</svg>
