<?xml version="1.0" encoding="UTF-8" standalone="no"?>
<!-- Created with Inkscape (http://www.inkscape.org/) -->

<svg
   xmlns:dc="http://purl.org/dc/elements/1.1/"
   xmlns:cc="http://creativecommons.org/ns#"
   xmlns:rdf="http://www.w3.org/1999/02/22-rdf-syntax-ns#"
   xmlns:svg="http://www.w3.org/2000/svg"
   xmlns="http://www.w3.org/2000/svg"
   xmlns:sodipodi="http://sodipodi.sourceforge.net/DTD/sodipodi-0.dtd"
   xmlns:inkscape="http://www.inkscape.org/namespaces/inkscape"
   version="1.1"
   id="svg2"
   width="640"
   height="480"
   viewBox="0 0 640 480"
   sodipodi:docname="background.svg"
   inkscape:version="0.92.5 (2060ec1f9f, 2020-04-08)"
   inkscape:export-filename="/home/ian/src/pop/keyboard-configurator/macos/background.png"
   inkscape:export-xdpi="96"
   inkscape:export-ydpi="96">
  <metadata
     id="metadata8">
    <rdf:RDF>
      <cc:Work
         rdf:about="">
        <dc:format>image/svg+xml</dc:format>
        <dc:type
           rdf:resource="http://purl.org/dc/dcmitype/StillImage" />
        <dc:title />
      </cc:Work>
    </rdf:RDF>
  </metadata>
  <defs
     id="defs6">
    <filter
       style="color-interpolation-filters:sRGB;"
       inkscape:label="Drop Shadow"
       id="filter5457">
      <feFlood
         flood-opacity="0.498039"
         flood-color="rgb(0,0,0)"
         result="flood"
         id="feFlood5447" />
      <feComposite
         in="flood"
         in2="SourceGraphic"
         operator="in"
         result="composite1"
         id="feComposite5449" />
      <feGaussianBlur
         in="composite1"
         stdDeviation="4"
         result="blur"
         id="feGaussianBlur5451" />
      <feOffset
         dx="-2.77556e-17"
         dy="4.57967e-15"
         result="offset"
         id="feOffset5453" />
      <feComposite
         in="SourceGraphic"
         in2="offset"
         operator="over"
         result="composite2"
         id="feComposite5455" />
    </filter>
    <filter
       style="color-interpolation-filters:sRGB;"
       inkscape:label="Drop Shadow"
       id="filter5469">
      <feFlood
         flood-opacity="0.498039"
         flood-color="rgb(0,0,0)"
         result="flood"
         id="feFlood5459" />
      <feComposite
         in="flood"
         in2="SourceGraphic"
         operator="in"
         result="composite1"
         id="feComposite5461" />
      <feGaussianBlur
         in="composite1"
         stdDeviation="4"
         result="blur"
         id="feGaussianBlur5463" />
      <feOffset
         dx="-2.77556e-17"
         dy="4.57967e-15"
         result="offset"
         id="feOffset5465" />
      <feComposite
         in="SourceGraphic"
         in2="offset"
         operator="over"
         result="composite2"
         id="feComposite5467" />
    </filter>
    <filter
       style="color-interpolation-filters:sRGB;"
       inkscape:label="Drop Shadow"
       id="filter5481">
      <feFlood
         flood-opacity="0.498039"
         flood-color="rgb(0,0,0)"
         result="flood"
         id="feFlood5471" />
      <feComposite
         in="flood"
         in2="SourceGraphic"
         operator="in"
         result="composite1"
         id="feComposite5473" />
      <feGaussianBlur
         in="composite1"
         stdDeviation="4"
         result="blur"
         id="feGaussianBlur5475" />
      <feOffset
         dx="-2.77556e-17"
         dy="4.57967e-15"
         result="offset"
         id="feOffset5477" />
      <feComposite
         in="SourceGraphic"
         in2="offset"
         operator="over"
         result="composite2"
         id="feComposite5479" />
    </filter>
    <filter
       style="color-interpolation-filters:sRGB;"
       inkscape:label="Drop Shadow"
       id="filter5493">
      <feFlood
         flood-opacity="0.498039"
         flood-color="rgb(0,0,0)"
         result="flood"
         id="feFlood5483" />
      <feComposite
         in="flood"
         in2="SourceGraphic"
         operator="in"
         result="composite1"
         id="feComposite5485" />
      <feGaussianBlur
         in="composite1"
         stdDeviation="4"
         result="blur"
         id="feGaussianBlur5487" />
      <feOffset
         dx="-2.77556e-17"
         dy="4.57967e-15"
         result="offset"
         id="feOffset5489" />
      <feComposite
         in="SourceGraphic"
         in2="offset"
         operator="over"
         result="composite2"
         id="feComposite5491" />
    </filter>
  </defs>
  <sodipodi:namedview
     pagecolor="#ffffff"
     bordercolor="#666666"
     borderopacity="1"
     objecttolerance="10"
     gridtolerance="10"
     guidetolerance="10"
     inkscape:pageopacity="0"
     inkscape:pageshadow="2"
     inkscape:window-width="2560"
     inkscape:window-height="1379"
     id="namedview4"
     showgrid="false"
     inkscape:zoom="1.9754796"
     inkscape:cx="319.00364"
     inkscape:cy="271.44604"
     inkscape:window-x="2560"
     inkscape:window-y="24"
     inkscape:window-maximized="0"
     inkscape:current-layer="layer10" />
  <g
     inkscape:groupmode="layer"
     id="layer2"
     inkscape:label="Background"
     style="opacity:1"
     transform="translate(0,-160)">
    <rect
       style="opacity:1;fill:#cccccc;fill-opacity:1;stroke-width:0.75006062"
       id="rect4542"
       width="640.05176"
       height="480.03882"
       x="0"
       y="159.96115" />
  </g>
  <g
     inkscape:groupmode="layer"
     id="layer7"
     inkscape:label="Arrow"
     style="opacity:1">
    <path
       style="fill:#ffffff;stroke:none;stroke-width:1px;stroke-linecap:butt;stroke-linejoin:miter;stroke-opacity:1;fill-opacity:1;filter:url(#filter5481)"
       d="m 271.85682,333.69128 0.0895,36.51006 59.86575,-0.17897 0.35795,18.34452 36.51006,-36.33109 -36.42058,-36.15213 v 17.89709 z"
       id="path4592"
       inkscape:connector-curvature="0" />
  </g>
  <g
     inkscape:groupmode="layer"
     id="layer8"
     inkscape:label="Box Left">
    <rect
       style="opacity:1;fill:#ffffff;fill-opacity:1;stroke:none;filter:url(#filter5469)"
       id="rect4595"
       width="128.57439"
       height="128.07118"
       x="128.07216"
       y="288.39996"
       ry="6.0744743" />
  </g>
  <g
     inkscape:label="Box Right"
     id="g4607"
     inkscape:groupmode="layer"
     style="opacity:1">
    <rect
       ry="6.0744743"
       y="288.39996"
       x="384.07214"
       height="128.07118"
       width="128.57439"
       id="rect4605"
       style="opacity:1;fill:#ffffff;fill-opacity:1;stroke:none;filter:url(#filter5493)" />
  </g>
  <g
     inkscape:groupmode="layer"
     id="layer10"
     inkscape:label="Circle"
     style="opacity:1">
    <circle
       style="opacity:1;fill:#564e48;fill-opacity:1;stroke:none;stroke-width:0.90602416;filter:url(#filter5457)"
       id="path5261"
       cx="318.67676"
       cy="146.89151"
       r="95.166771" />
  </g>
  <g
     inkscape:groupmode="layer"
     id="layer9"
     inkscape:label="76">
    <g
       id="g3805"
       transform="matrix(0.18208352,0,0,0.18208352,-371.46602,82.29835)"
       style="fill:#ffffff;fill-opacity:1">
      <path
         d="m 3780,275.5 c -25.6,67.6 -24.3,132.7 4,188.5 4.9,9.6 10.5,19 16.8,27.8 32.5,45.9 81.1,76.3 136.8,85.7 5.7,1 11.5,1.7 17.1,2.2 6.2,0.6 12.6,0.8 18.9,0.8 v 0 c 43.8,0 85.9,-13.1 121.7,-37.9 46.2,-32 76.7,-79.9 85.9,-134.7 9.2,-54.8 -4,-110 -37.1,-155.4 -33,-45.2 -81.9,-75.2 -137.7,-84.6 -3.2,-0.5 -6.4,-1 -9.5,-1.4 -7.8,-0.9 -15.8,1.6 -21.6,6.8 -5.7,5.1 -9,12.2 -9.2,19.8 -0.4,14.5 10.1,26.5 24.2,28.3 2.3,0.3 4.7,0.6 7,1 41.2,6.9 77.3,29.1 101.8,62.3 24.6,33.4 34.4,73.8 27.6,114 -6.4,37.9 -27.1,71.6 -58.4,95 -27.5,20.6 -60.2,31.4 -94.7,31.4 -4.7,0 -9.5,-0.2 -14.2,-0.6 -4.2,-0.4 -8.5,-0.9 -12.7,-1.6 -40.7,-6.9 -76.4,-29.2 -100.5,-62.8 -13.4,-18.8 -22.4,-40.9 -25.9,-64 -6.9,-45.4 6.8,-103.1 36.5,-154.4 0.2,-0.4 5.1,-9.2 13,-23.4 35.3,-63.9 142,-256.8 151.2,-273.9 l 2.7,-8.2 c 4.2,-12.6 -1.2,-26.4 -12.9,-32.8 l -0.6,-0.3 c -4.1,-2.3 -8.7,-3.4 -13.3,-3.4 -8.3,0 -16,3.6 -21.3,10 l -5.1,6.2 -160.7,293.6 c -10.2,20.5 -21,42.9 -29.8,66 z"
         id="path3801"
         inkscape:connector-curvature="0"
         style="fill:#ffffff;fill-opacity:1" />
      <path
         d="m 3432.8,709.3 0.7,0.4 c 4.2,2.3 8.9,3.4 13.6,3.4 v 0 c 10.7,0 20.4,-5.8 25.5,-15.2 L 3751,181.5 c 6.9,-12.8 3.1,-28.7 -8.6,-37.1 l -0.4,-0.3 c -4,-3.2 -11.9,-5.5 -18.5,-5.5 h -364.7 c -13.6,0 -24.9,11.1 -25.3,24.7 v 1 c -0.1,4.7 1.2,9.4 3.8,13.5 l 71.8,120.9 c 4.5,7.3 12.6,11.7 21.4,11.7 4.8,0 9.6,-1.4 13.8,-4 6,-3.8 10.2,-9.4 11.8,-16 1.7,-6.7 0.6,-13.5 -3,-19.3 l -48.3,-81.4 h 275.3 L 3421,670.2 c -3.6,6.8 -4.4,14.6 -2.2,22 2.2,7.4 7.2,13.5 14,17.1 z"
         id="path3803"
         inkscape:connector-curvature="0"
         style="fill:#ffffff;fill-opacity:1" />
    </g>
    <g
       id="g3809"
       style="opacity:1;fill:#fba400;fill-opacity:1"
       transform="matrix(0.18208352,0,0,0.18208352,-371.46602,82.29835)">
      <path
         d="m 4140.8,712.4 h -335.1 c -16.2,0 -29.3,-13.1 -29.3,-29.3 v -0.6 c 0,-16.2 13.1,-29.3 29.3,-29.3 h 335.1 c 16.2,0 29.3,13.1 29.3,29.3 v 0.6 c 0,16.2 -13.1,29.3 -29.3,29.3 z"
         id="path3807"
         style="fill:#fba400;fill-opacity:1"
         inkscape:connector-curvature="0" />
    </g>
  </g>
</svg>
